  0
SECTION
  2
HEADER
  9
$ACADVER
  1
AC1014
  9
$ACADMAINTVER
 70
     9
  9
$DWGCODEPAGE
  3
ANSI_1252
  9
$INSBASE
 10
0.0
 20
0.0
 30
0.0
  9
$EXTMIN
 10
1.000000000000000E+20
 20
1.000000000000000E+20
 30
1.000000000000000E+20
  9
$EXTMAX
 10
-1.000000000000000E+20
 20
-1.000000000000000E+20
 30
-1.000000000000000E+20
  9
$LIMMIN
 10
0.0
 20
0.0
  9
$LIMMAX
 10
420.0
 20
297.0
  9
$ORTHOMODE
 70
     0
  9
$REGENMODE
 70
     1
  9
$FILLMODE
 70
     1
  9
$QTEXTMODE
 70
     0
  9
$MIRRTEXT
 70
     1
  9
$DRAGMODE
 70
     2
  9
$LTSCALE
 40
12.7
  9
$OSMODE
 70
    23
  9
$ATTMODE
 70
     1
  9
$TEXTSIZE
 40
3.5
  9
$TRACEWID
 40
1.0
  9
$TEXTSTYLE
  7
ONSHAPE-STANDARD
  9
$CLAYER
  8
0
  9
$CELTYPE
  6
BYLAYER
  9
$CECOLOR
 62
   256
  9
$CELTSCALE
 40
1.0
  9
$DELOBJ
 70
     1
  9
$DISPSILH
 70
     0
  9
$DIMSCALE
 40
1.0
  9
$DIMASZ
 40
2.5
  9
$DIMEXO
 40
0.625
  9
$DIMDLI
 40
3.75
  9
$DIMRND
 40
0.0
  9
$DIMDLE
 40
0.0
  9
$DIMEXE
 40
1.25
  9
$DIMTP
 40
0.0
  9
$DIMTM
 40
0.0
  9
$DIMTXT
 40
3.5
  9
$DIMCEN
 40
2.5
  9
$DIMTSZ
 40
0.0
  9
$DIMTOL
 70
     0
  9
$DIMLIM
 70
     0
  9
$DIMTIH
 70
     0
  9
$DIMTOH
 70
     0
  9
$DIMSE1
 70
     0
  9
$DIMSE2
 70
     0
  9
$DIMTAD
 70
     1
  9
$DIMZIN
 70
     8
  9
$DIMBLK
  1

  9
$DIMASO
 70
     1
  9
$DIMSHO
 70
     1
  9
$DIMPOST
  1

  9
$DIMAPOST
  1

  9
$DIMALT
 70
     0
  9
$DIMALTD
 70
     3
  9
$DIMALTF
 40
0.03937
  9
$DIMLFAC
 40
1.0
  9
$DIMTOFL
 70
     1
  9
$DIMTVP
 40
0.0
  9
$DIMTIX
 70
     0
  9
$DIMSOXD
 70
     0
  9
$DIMSAH
 70
     0
  9
$DIMBLK1
  1

  9
$DIMBLK2
  1

  9
$DIMSTYLE
  2
ONSHAPE-ISO-25
  9
$DIMCLRD
 70
     7
  9
$DIMCLRE
 70
     7
  9
$DIMCLRT
 70
     7
  9
$DIMTFAC
 40
1.0
  9
$DIMGAP
 40
0.625
  9
$DIMJUST
 70
     0
  9
$DIMSD1
 70
     0
  9
$DIMSD2
 70
     0
  9
$DIMTOLJ
 70
     0
  9
$DIMTZIN
 70
     8
  9
$DIMALTZ
 70
     8
  9
$DIMALTTZ
 70
     0
  9
$DIMFIT
 70
     3
  9
$DIMUPT
 70
     1
  9
$DIMUNIT
 70
     2
  9
$DIMDEC
 70
     2
  9
$DIMTDEC
 70
     2
  9
$DIMALTU
 70
     2
  9
$DIMALTTD
 70
     3
  9
$DIMTXSTY
  7
ONSHAPE-STANDARD-DIMENSION
  9
$DIMAUNIT
 70
     0
  9
$LUNITS
 70
     2
  9
$LUPREC
 70
     4
  9
$SKETCHINC
 40
1.0
  9
$FILLETRAD
 40
10.0
  9
$AUNITS
 70
     0
  9
$AUPREC
 70
     0
  9
$MENU
  1
.
  9
$ELEVATION
 40
0.0
  9
$PELEVATION
 40
0.0
  9
$THICKNESS
 40
0.0
  9
$LIMCHECK
 70
     0
  9
$CHAMFERA
 40
0.0
  9
$CHAMFERB
 40
0.0
  9
$CHAMFERC
 40
0.0
  9
$CHAMFERD
 40
0.0
  9
$SKPOLY
 70
     0
  9
$TDCREATE
 40
2459189.901393449
  9
$TDUPDATE
 40
2459189.901394306
  9
$TDINDWG
 40
0.0
  9
$TDUSRTIMER
 40
0.0
  9
$USRTIMER
 70
     1
  9
$ANGBASE
 50
0.0
  9
$ANGDIR
 70
     0
  9
$PDMODE
 70
    33
  9
$PDSIZE
 40
1.0
  9
$PLINEWID
 40
0.0
  9
$COORDS
 70
     1
  9
$SPLFRAME
 70
     0
  9
$SPLINETYPE
 70
     6
  9
$SPLINESEGS
 70
     8
  9
$ATTDIA
 70
     0
  9
$ATTREQ
 70
     1
  9
$HANDLING
 70
     1
  9
$HANDSEED
  5
2A9
  9
$SURFTAB1
 70
     6
  9
$SURFTAB2
 70
     6
  9
$SURFTYPE
 70
     6
  9
$SURFU
 70
     6
  9
$SURFV
 70
     6
  9
$UCSNAME
  2

  9
$UCSORG
 10
0.0
 20
0.0
 30
0.0
  9
$UCSXDIR
 10
1.0
 20
0.0
 30
0.0
  9
$UCSYDIR
 10
0.0
 20
1.0
 30
0.0
  9
$PUCSNAME
  2

  9
$PUCSORG
 10
0.0
 20
0.0
 30
0.0
  9
$PUCSXDIR
 10
1.0
 20
0.0
 30
0.0
  9
$PUCSYDIR
 10
0.0
 20
1.0
 30
0.0
  9
$USERI1
 70
     0
  9
$USERI2
 70
     0
  9
$USERI3
 70
     0
  9
$USERI4
 70
     0
  9
$USERI5
 70
     0
  9
$USERR1
 40
0.0
  9
$USERR2
 40
0.0
  9
$USERR3
 40
0.0
  9
$USERR4
 40
0.0
  9
$USERR5
 40
0.0
  9
$WORLDVIEW
 70
     1
  9
$SHADEDGE
 70
     3
  9
$SHADEDIF
 70
    70
  9
$TILEMODE
 70
     1
  9
$MAXACTVP
 70
    64
  9
$PINSBASE
 10
0.0
 20
0.0
 30
0.0
  9
$PLIMCHECK
 70
     0
  9
$PEXTMIN
 10
1.000000000000000E+20
 20
1.000000000000000E+20
 30
1.000000000000000E+20
  9
$PEXTMAX
 10
-1.000000000000000E+20
 20
-1.000000000000000E+20
 30
-1.000000000000000E+20
  9
$PLIMMIN
 10
0.0
 20
0.0
  9
$PLIMMAX
 10
420.0
 20
297.0
  9
$UNITMODE
 70
     0
  9
$VISRETAIN
 70
     1
  9
$PLINEGEN
 70
     0
  9
$PSLTSCALE
 70
     1
  9
$TREEDEPTH
 70
  3020
  9
$PICKSTYLE
 70
     1
  9
$CMLSTYLE
  2
STANDARD
  9
$CMLJUST
 70
     0
  9
$CMLSCALE
 40
20.0
  9
$PROXYGRAPHICS
 70
     1
  9
$MEASUREMENT
 70
     1
  0
ENDSEC
  0
SECTION
  2
CLASSES
  0
CLASS
  1
ACDBDICTIONARYWDFLT
  2
AcDbDictionaryWithDefault
  3
ObjectDBX Classes
 90
        0
280
     0
281
     0
  0
CLASS
  1
VISUALSTYLE
  2
AcDbVisualStyle
  3
ObjectDBX Classes
 90
     4095
280
     0
281
     0
  0
CLASS
  1
MATERIAL
  2
AcDbMaterial
  3
ObjectDBX Classes
 90
     1153
280
     0
281
     0
  0
CLASS
  1
SCALE
  2
AcDbScale
  3
ObjectDBX Classes
 90
     1153
280
     0
281
     0
  0
CLASS
  1
TABLESTYLE
  2
AcDbTableStyle
  3
ObjectDBX Classes
 90
     4095
280
     0
281
     0
  0
CLASS
  1
MLEADERSTYLE
  2
AcDbMLeaderStyle
  3
ACDB_MLEADERSTYLE_CLASS
 90
     4095
280
     0
281
     0
  0
CLASS
  1
SUN
  2
AcDbSun
  3
SCENEOE
 90
     1153
280
     0
281
     0
  0
CLASS
  1
DICTIONARYVAR
  2
AcDbDictionaryVar
  3
ObjectDBX Classes
 90
        0
280
     0
281
     0
  0
CLASS
  1
XRECORD
  2
AcDbXrecord
  3
ObjectDBX Classes
 90
        0
280
     0
281
     0
  0
CLASS
  1
LWPOLYLINE
  2
AcDbPolyline
  3
ObjectDBX Classes
 90
        0
280
     0
281
     1
  0
CLASS
  1
HATCH
  2
AcDbHatch
  3
ObjectDBX Classes
 90
        0
280
     0
281
     1
  0
CLASS
  1
ACDBPLACEHOLDER
  2
AcDbPlaceHolder
  3
ObjectDBX Classes
 90
        0
280
     0
281
     0
  0
CLASS
  1
LAYOUT
  2
AcDbLayout
  3
ObjectDBX Classes
 90
        0
280
     0
281
     0
  0
ENDSEC
  0
SECTION
  2
TABLES
  0
TABLE
  2
VPORT
  5
8
102
{ACAD_XDICTIONARY
360
29E
102
}
330
0
100
AcDbSymbolTable
 70
     1
  0
VPORT
  5
29
330
8
100
AcDbSymbolTableRecord
100
AcDbViewportTableRecord
  2
*ACTIVE
 70
     0
 10
0.0
 20
0.0
 11
1.0
 21
1.0
 12
426.8339910267604
 22
289.7001129896317
 13
0.0
 23
0.0
 14
10.0
 24
10.0
 15
10.0
 25
10.0
 16
0.0
 26
0.0
 36
1.0
 17
0.0
 27
0.0
 37
0.0
 40
554.9632387615852
 41
1.454845865588031
 42
50.0
 43
0.0
 44
0.0
 50
0.0
 51
0.0
 71
     0
 72
   100
 73
     1
 74
     3
 75
     0
 76
     0
 77
     0
 78
     0
  0
ENDTAB
  0
TABLE
  2
LTYPE
  5
5
330
0
100
AcDbSymbolTable
 70
     3
  0
LTYPE
  5
14
330
5
100
AcDbSymbolTableRecord
100
AcDbLinetypeTableRecord
  2
BYBLOCK
 70
     0
  3

 72
    65
 73
     0
 40
0.0
  0
LTYPE
  5
15
330
5
100
AcDbSymbolTableRecord
100
AcDbLinetypeTableRecord
  2
BYLAYER
 70
     0
  3

 72
    65
 73
     0
 40
0.0
  0
LTYPE
  5
16
330
5
100
AcDbSymbolTableRecord
100
AcDbLinetypeTableRecord
  2
CONTINUOUS
 70
     0
  3
Solid line
 72
    65
 73
     0
 40
0.0
  0
LTYPE
  5
C2
330
5
100
AcDbSymbolTableRecord
100
AcDbLinetypeTableRecord
  2
CENTER
 70
     0
  3
Center line ____ _ ____ _ ____ _
 72
    65
 73
     4
 40
0.7874015748031495
 49
0.4921259842519685
 74
     0
 49
-0.0984251968503937
 74
     0
 49
0.0984251968503937
 74
     0
 49
-0.0984251968503937
 74
     0
  0
LTYPE
  5
19B
330
5
100
AcDbSymbolTableRecord
100
AcDbLinetypeTableRecord
  2
ONS_PHANTOM
 70
     0
  3
Onshape Phantom line ______ __ __ ______
 72
    65
 73
     6
 40
0.4999999999999999
 49
0.25
 74
     0
 49
-0.05
 74
     0
 49
0.05
 74
     0
 49
-0.05
 74
     0
 49
0.05
 74
     0
 49
-0.05
 74
     0
  0
ENDTAB
  0
TABLE
  2
LAYER
  5
2
330
0
100
AcDbSymbolTable
 70
     7
  0
LAYER
  5
10
330
2
100
AcDbSymbolTableRecord
100
AcDbLayerTableRecord
  2
0
 70
     0
 62
     7
  6
CONTINUOUS
  0
LAYER
  5
70
330
2
100
AcDbSymbolTableRecord
100
AcDbLayerTableRecord
  2
DEFPOINTS
 70
     0
 62
     7
  6
CONTINUOUS
  0
LAYER
  5
77
330
2
100
AcDbSymbolTableRecord
100
AcDbLayerTableRecord
  2
ANNOTATION_TEXT
 70
     0
 62
     7
  6
CONTINUOUS
  0
LAYER
  5
C0
330
2
100
AcDbSymbolTableRecord
100
AcDbLayerTableRecord
  2
SHEETMETAL_BEND_LINES_UP
 70
     0
 62
     7
  6
CENTER
  0
LAYER
  5
C3
330
2
100
AcDbSymbolTableRecord
100
AcDbLayerTableRecord
  2
VISIBLE
 70
     0
 62
     7
  6
CONTINUOUS
  0
LAYER
  5
198
330
2
100
AcDbSymbolTableRecord
100
AcDbLayerTableRecord
  2
SHEETMETAL_BEND_LINES_DOWN
 70
     0
 62
     7
  6
CENTER
  0
LAYER
  5
199
330
2
100
AcDbSymbolTableRecord
100
AcDbLayerTableRecord
  2
SHEETMETAL_BEND_TANGENT_LI
 70
     0
 62
     7
  6
CONTINUOUS
  0
ENDTAB
  0
TABLE
  2
STYLE
  5
3
330
0
100
AcDbSymbolTable
 70
    27
  0
STYLE
  5
11
330
3
100
AcDbSymbolTableRecord
100
AcDbTextStyleTableRecord
  2
STANDARD
 70
     0
 40
0.0
 41
1.0
 50
0.0
 71
     0
 42
3.5
  3
txt
  4

  0
STYLE
  5
71
330
3
100
AcDbSymbolTableRecord
100
AcDbTextStyleTableRecord
  2
ONSHAPE-STANDARD
 70
     0
 40
0.0
 41
1.0
 50
0.0
 71
     0
 42
3.5
  3
NotoSans-Regular.ttf
  4

1001
ACAD
1000
Noto Sans
1071
        0
  0
STYLE
  5
73
330
3
100
AcDbSymbolTableRecord
100
AcDbTextStyleTableRecord
  2
ONSHAPE-STANDARD-DIMENSION
 70
     0
 40
0.0
 41
1.0
 50
0.0
 71
     0
 42
3.5
  3
NotoSans-Regular.ttf
  4

1001
ACAD
1000
Noto Sans
1071
        0
  0
STYLE
  5
79
330
3
100
AcDbSymbolTableRecord
100
AcDbTextStyleTableRecord
  2
ONSHAPE-STANDARD-VIEW-LABE
 70
     0
 40
3.5
 41
1.0
 50
0.0
 71
     0
 42
3.5
  3
NotoSans-Regular.ttf
  4

1001
ACAD
1000
Noto Sans
1071
        0
  0
STYLE
  5
233
330
3
100
AcDbSymbolTableRecord
100
AcDbTextStyleTableRecord
  2
ONSHAPE-STANDARD-BOLD
 70
     0
 40
0.0
 41
1.0
 50
0.0
 71
     0
 42
3.5
  3
NotoSans-Bold.ttf
  4

1001
ACAD
1000
Noto Sans
1071
 33554432
  0
STYLE
  5
234
330
3
100
AcDbSymbolTableRecord
100
AcDbTextStyleTableRecord
  2
ONSHAPE-STANDARD-FIELDS
 70
     0
 40
0.0
 41
1.0
 50
0.0
 71
     0
 42
3.5
  3

  4

1001
ACAD
1000
Noto Sans
1071
        0
  0
STYLE
  5
235
330
3
100
AcDbSymbolTableRecord
100
AcDbTextStyleTableRecord
  2
ONSHAPE-STANDARD-TCFIELDS
 70
     0
 40
0.0
 41
1.0
 50
0.0
 71
     0
 42
3.5
  3
NotoSansTC-Regular.otf
  4

1001
ACAD
1000
Noto Sans TC
1071
        0
  0
STYLE
  5
236
330
3
100
AcDbSymbolTableRecord
100
AcDbTextStyleTableRecord
  2
ONSHAPE-STANDARD-SCFIELDS
 70
     0
 40
0.0
 41
1.0
 50
0.0
 71
     0
 42
3.5
  3
NotoSansSC-Regular.otf
  4

1001
ACAD
1000
Noto Sans SC
1071
        0
  0
STYLE
  5
237
330
3
100
AcDbSymbolTableRecord
100
AcDbTextStyleTableRecord
  2
ONSHAPE-STANDARD-KOREANFIE
 70
     0
 40
0.0
 41
1.0
 50
0.0
 71
     0
 42
3.5
  3
NotoSansKR-Regular.otf
  4

1001
ACAD
1000
Noto Sans KR
1071
        0
  0
STYLE
  5
239
330
3
100
AcDbSymbolTableRecord
100
AcDbTextStyleTableRecord
  2
TTFSTYLE
 70
     0
 40
0.0
 41
1.0
 50
0.0
 71
     0
 42
3.5
  3
Verdana.ttf
  4

1001
ACAD
1000
Verdana
1071
       34
  0
STYLE
  5
23A
330
3
100
AcDbSymbolTableRecord
100
AcDbTextStyleTableRecord
  2
ONSHAPE-STANDARD-GTOLERANC
 70
     0
 40
0.0
 41
1.0
 50
0.0
 71
     0
 42
3.5
  3

  4

1001
ACAD
1000
Noto Sans
1071
        0
  0
STYLE
  5
23B
330
3
100
AcDbSymbolTableRecord
100
AcDbTextStyleTableRecord
  2
ONSHAPE-STANDARD-TABLE-DAT
 70
     0
 40
0.0
 41
1.0
 50
0.0
 71
     0
 42
3.5
  3
NotoSans-Regular.ttf
  4

1001
ACAD
1000
Noto Sans
1071
        0
  0
STYLE
  5
23C
330
3
100
AcDbSymbolTableRecord
100
AcDbTextStyleTableRecord
  2
ONSHAPE-STANDARD-TABLE-TIT
 70
     0
 40
0.0
 41
1.0
 50
0.0
 71
     0
 42
3.5
  3
NotoSans-Bold.ttf
  4

1001
ACAD
1000
Noto Sans
1071
 33554432
  0
STYLE
  5
23D
330
3
100
AcDbSymbolTableRecord
100
AcDbTextStyleTableRecord
  2
ONSHAPE-STANDARD-TABLE-HEA
 70
     0
 40
0.0
 41
1.0
 50
0.0
 71
     0
 42
3.5
  3
NotoSans-Bold.ttf
  4

1001
ACAD
1000
Noto Sans
1071
 33554432
  0
STYLE
  5
23E
330
3
100
AcDbSymbolTableRecord
100
AcDbTextStyleTableRecord
  2
ONSHAPE-STANDARD-BOMTABLE-
 70
     0
 40
0.0
 41
1.0
 50
0.0
 71
     0
 42
3.5
  3
NotoSans-Regular.ttf
  4

1001
ACAD
1000
Noto Sans
1071
        0
  0
STYLE
  5
23F
330
3
100
AcDbSymbolTableRecord
100
AcDbTextStyleTableRecord
  2
ONSHAPE-STANDARD-BOMTABLE0
 70
     0
 40
0.0
 41
1.0
 50
0.0
 71
     0
 42
3.5
  3
NotoSans-Bold.ttf
  4

1001
ACAD
1000
Noto Sans
1071
 33554432
  0
STYLE
  5
240
330
3
100
AcDbSymbolTableRecord
100
AcDbTextStyleTableRecord
  2
ONSHAPE-STANDARD-BOMTABLE1
 70
     0
 40
0.0
 41
1.0
 50
0.0
 71
     0
 42
3.5
  3
NotoSans-Bold.ttf
  4

1001
ACAD
1000
Noto Sans
1071
 33554432
  0
STYLE
  5
241
330
3
100
AcDbSymbolTableRecord
100
AcDbTextStyleTableRecord
  2
ONSHAPE-STANDARD-NOTESTYLE
 70
     0
 40
3.5
 41
1.0
 50
0.0
 71
     0
 42
3.5
  3
Noto Sans
  4

1001
ACAD
1000
Noto Sans
1071
        0
  0
STYLE
  5
243
330
3
100
AcDbSymbolTableRecord
100
AcDbTextStyleTableRecord
  2
ONSHAPE-STANDARD-HOLE-CALL
 70
     0
 40
3.5
 41
1.0
 50
0.0
 71
     0
 42
3.5
  3
Noto Sans
  4

1001
ACAD
1000
Noto Sans
1071
        0
  0
STYLE
  5
244
330
3
100
AcDbSymbolTableRecord
100
AcDbTextStyleTableRecord
  2
ONSHAPE-STANDARD-HOLETABLE
 70
     0
 40
0.0
 41
1.0
 50
0.0
 71
     0
 42
3.5
  3
NotoSans-Regular.ttf
  4

1001
ACAD
1000
Noto Sans
1071
        0
  0
STYLE
  5
245
330
3
100
AcDbSymbolTableRecord
100
AcDbTextStyleTableRecord
  2
ONSHAPE-STANDARD-HOLETABL0
 70
     0
 40
0.0
 41
1.0
 50
0.0
 71
     0
 42
3.5
  3
NotoSans-Bold.ttf
  4

1001
ACAD
1000
Noto Sans
1071
 33554432
  0
STYLE
  5
246
330
3
100
AcDbSymbolTableRecord
100
AcDbTextStyleTableRecord
  2
ONSHAPE-STANDARD-HOLETABL1
 70
     0
 40
0.0
 41
1.0
 50
0.0
 71
     0
 42
3.5
  3
NotoSans-Bold.ttf
  4

1001
ACAD
1000
Noto Sans
1071
 33554432
  0
STYLE
  5
247
330
3
100
AcDbSymbolTableRecord
100
AcDbTextStyleTableRecord
  2
ONSHAPE-STANDARD-HOLE-TAG
 70
     0
 40
0.0
 41
1.0
 50
0.0
 71
     0
 42
3.5
  3
Noto Sans
  4

1001
ACAD
1000
Noto Sans
1071
        0
  0
STYLE
  5
248
330
3
100
AcDbSymbolTableRecord
100
AcDbTextStyleTableRecord
  2
ONSHAPE-STANDARD-REVISIONT
 70
     0
 40
0.0
 41
1.0
 50
0.0
 71
     0
 42
3.5
  3
NotoSans-Regular.ttf
  4

1001
ACAD
1000
Noto Sans
1071
        0
  0
STYLE
  5
249
330
3
100
AcDbSymbolTableRecord
100
AcDbTextStyleTableRecord
  2
ONSHAPE-STANDARD-REVISION0
 70
     0
 40
0.0
 41
1.0
 50
0.0
 71
     0
 42
3.5
  3
NotoSans-Bold.ttf
  4

1001
ACAD
1000
Noto Sans
1071
 33554432
  0
STYLE
  5
24A
330
3
100
AcDbSymbolTableRecord
100
AcDbTextStyleTableRecord
  2
ONSHAPE-STANDARD-REVISION1
 70
     0
 40
0.0
 41
1.0
 50
0.0
 71
     0
 42
3.5
  3
NotoSans-Bold.ttf
  4

1001
ACAD
1000
Noto Sans
1071
 33554432
  0
STYLE
  5
24B
330
3
100
AcDbSymbolTableRecord
100
AcDbTextStyleTableRecord
  2
ONSHAPE-STANDARD-REVISION-
 70
     0
 40
3.5
 41
1.0
 50
0.0
 71
     0
 42
3.5
  3
Noto Sans
  4

1001
ACAD
1000
Noto Sans
1071
        0
  0
ENDTAB
  0
TABLE
  2
VIEW
  5
6
330
0
100
AcDbSymbolTable
 70
     0
  0
ENDTAB
  0
TABLE
  2
UCS
  5
7
330
0
100
AcDbSymbolTable
 70
     0
  0
ENDTAB
  0
TABLE
  2
APPID
  5
9
330
0
100
AcDbSymbolTable
 70
     2
  0
APPID
  5
12
330
9
100
AcDbSymbolTableRecord
100
AcDbRegAppTableRecord
  2
ACAD
 70
     0
  0
APPID
  5
2A8
330
9
100
AcDbSymbolTableRecord
100
AcDbRegAppTableRecord
  2
ACAD_MLEADERVER
 70
     0
  0
ENDTAB
  0
TABLE
  2
DIMSTYLE
  5
A
330
0
100
AcDbSymbolTable
 70
    18
  0
DIMSTYLE
105
27
330
A
100
AcDbSymbolTableRecord
100
AcDbDimStyleTableRecord
  2
ISO-25
 70
     0
  3

  4

  5

  6

  7

 40
1.0
 41
2.5
 42
0.625
 43
3.75
 44
1.25
 45
0.0
 46
0.0
 47
0.0
 48
0.0
140
2.5
141
2.5
142
0.0
143
0.03937007874016
144
1.0
145
0.0
146
1.0
147
0.625
 71
     0
 72
     0
 73
     0
 74
     0
 75
     0
 76
     0
 77
     1
 78
     8
170
     0
171
     3
172
     1
173
     0
174
     0
175
     0
176
     0
177
     0
178
     0
270
     2
271
     2
272
     2
273
     2
274
     3
340
11
275
     0
280
     0
281
     0
282
     0
283
     0
284
     8
285
     0
286
     0
287
     3
288
     0
  0
DIMSTYLE
105
72
330
A
100
AcDbSymbolTableRecord
100
AcDbDimStyleTableRecord
  2
ONSHAPE-ISO-25
 70
     0
  3

  4

  5

  6

  7

 40
1.0
 41
2.5
 42
0.625
 43
3.75
 44
1.25
 45
0.0
 46
0.0
 47
0.0
 48
0.0
140
3.5
141
2.5
142
0.0
143
0.03937
144
1.0
145
0.0
146
1.0
147
0.625
 71
     0
 72
     0
 73
     0
 74
     0
 75
     0
 76
     0
 77
     1
 78
     8
170
     0
171
     3
172
     1
173
     0
174
     0
175
     0
176
     7
177
     7
178
     7
179
     1
270
     2
271
     2
272
     2
273
     2
274
     3
340
73
275
     0
280
     0
281
     0
282
     0
283
     0
284
     8
285
     8
286
     0
287
     3
288
     1
  0
DIMSTYLE
105
24E
330
A
100
AcDbSymbolTableRecord
100
AcDbDimStyleTableRecord
  2
ISO
 70
     0
  3

  4
"
  5

  6

  7

 40
1.0
 41
3.5
 42
1.0
 43
10.0
 44
1.0
 45
0.0
 46
0.0
 47
0.1
 48
0.1
140
3.5
141
0.0
142
0.0
143
0.03937
144
1.0
145
0.0
146
0.71
147
1.5
 71
     0
 72
     0
 73
     0
 74
     0
 75
     0
 76
     0
 77
     1
 78
     8
170
     0
171
     3
172
     1
173
     0
174
     0
175
     0
176
     7
177
     7
178
     7
270
     2
271
     2
272
     3
273
     2
274
     3
340
11
275
     0
280
     0
281
     0
282
     0
283
     0
284
     8
285
     8
286
     0
287
     3
288
     1
  0
DIMSTYLE
105
24F
330
A
100
AcDbSymbolTableRecord
100
AcDbDimStyleTableRecord
  2
ISO$3
 70
     0
  3

  4
"
  5

  6

  7

 40
1.0
 41
3.5
 42
1.0
 43
10.0
 44
1.0
 45
0.0
 46
0.0
 47
0.1
 48
0.1
140
3.5
141
0.0
142
0.0
143
0.03937
144
1.0
145
0.0
146
0.71
147
1.5
 71
     0
 72
     0
 73
     0
 74
     1
 75
     0
 76
     0
 77
     1
 78
     8
170
     0
171
     3
172
     0
173
     0
174
     0
175
     0
176
     7
177
     7
178
     7
270
     2
271
     2
272
     3
273
     2
274
     3
340
11
275
     0
280
     0
281
     0
282
     0
283
     0
284
     8
285
     8
286
     0
288
     1
  0
DIMSTYLE
105
250
330
A
100
AcDbSymbolTableRecord
100
AcDbDimStyleTableRecord
  2
ISO$4
 70
     0
  3

  4
"
  5

  6

  7

 40
1.0
 41
3.5
 42
1.0
 43
10.0
 44
1.0
 45
0.0
 46
0.0
 47
0.1
 48
0.1
140
3.5
141
0.0
142
0.0
143
0.03937
144
1.0
145
0.0
146
0.71
147
1.5
 71
     0
 72
     0
 73
     0
 74
     0
 75
     0
 76
     0
 77
     1
 78
     8
170
     0
171
     3
172
     1
173
     0
174
     0
175
     0
176
     7
177
     7
178
     7
270
     2
271
     2
272
     3
273
     2
274
     3
340
11
275
     0
280
     0
281
     0
282
     0
283
     0
284
     8
285
     8
286
     0
287
     3
288
     1
  0
DIMSTYLE
105
251
330
A
100
AcDbSymbolTableRecord
100
AcDbDimStyleTableRecord
  2
ISO$6
 70
     0
  3

  4
"
  5

  6

  7

 40
1.0
 41
0.5
 42
1.0
 43
10.0
 44
1.0
 45
0.0
 46
0.0
 47
0.1
 48
0.1
140
3.5
141
0.0
142
0.0
143
0.03937
144
1.0
145
0.0
146
0.71
147
1.5
 71
     0
 72
     0
 73
     0
 74
     0
 75
     0
 76
     0
 77
     0
 78
     8
170
     0
171
     3
172
     1
173
     0
174
     0
175
     0
176
     7
177
     7
178
     7
270
     2
271
     2
272
     3
273
     2
274
     3
340
11
275
     0
280
     0
281
     0
282
     0
283
     0
284
     8
285
     8
286
     0
287
     3
288
     1
  0
DIMSTYLE
105
252
330
A
100
AcDbSymbolTableRecord
100
AcDbDimStyleTableRecord
  2
ISO$7
 70
     0
  3

  4
"
  5

  6

  7

 40
1.0
 41
3.5
 42
1.0
 43
10.0
 44
1.0
 45
0.0
 46
0.0
 47
0.1
 48
0.1
140
3.5
141
0.0
142
0.0
143
0.03937
144
1.0
145
0.0
146
0.71
147
1.5
 71
     0
 72
     0
 73
     0
 74
     0
 75
     0
 76
     0
 77
     1
 78
     8
170
     0
171
     3
172
     1
173
     0
174
     0
175
     0
176
     7
177
     7
178
     7
270
     2
271
     2
272
     3
273
     2
274
     3
340
11
275
     0
280
     0
281
     0
282
     0
283
     0
284
     8
285
     8
286
     0
287
     3
288
     1
  0
DIMSTYLE
105
253
330
A
100
AcDbSymbolTableRecord
100
AcDbDimStyleTableRecord
  2
ISO$SF
 70
     0
  3

  4
"
  5

  6

  7

 40
1.0
 41
3.5
 42
1.0
 43
10.0
 44
1.0
 45
0.0
 46
0.0
 47
0.1
 48
0.1
140
3.5
141
0.0
142
0.0
143
0.03937
144
1.0
145
0.0
146
0.71
147
1.5
 71
     0
 72
     0
 73
     0
 74
     0
 75
     1
 76
     1
 77
     1
 78
     8
170
     0
171
     3
172
     1
173
     0
174
     0
175
     0
176
     7
177
     7
178
     7
270
     2
271
     2
272
     3
273
     2
274
     3
340
11
275
     0
280
     0
281
     0
282
     0
283
     0
284
     8
285
     8
286
     0
287
     3
288
     1
  0
DIMSTYLE
105
254
330
A
100
AcDbSymbolTableRecord
100
AcDbDimStyleTableRecord
  2
ISO$SH
 70
     0
  3

  4
"
  5

  6

  7

 40
1.0
 41
3.5
 42
1.0
 43
10.0
 44
1.0
 45
0.0
 46
0.0
 47
0.1
 48
0.1
140
3.5
141
0.0
142
0.0
143
0.03937
144
2.0
145
0.0
146
0.71
147
1.5
 71
     0
 72
     0
 73
     0
 74
     0
 75
     1
 76
     1
 77
     1
 78
     8
170
     0
171
     3
172
     1
173
     1
174
     0
175
     0
176
     7
177
     7
178
     7
270
     2
271
     2
272
     3
273
     2
274
     3
340
11
275
     0
280
     0
281
     0
282
     0
283
     0
284
     8
285
     8
286
     0
287
     3
288
     1
  0
DIMSTYLE
105
257
330
A
100
AcDbSymbolTableRecord
100
AcDbDimStyleTableRecord
  2
ONSHAPE-ISO-25$0
 70
     0
  3

  4

  5

  6

  7

 40
1.0
 41
2.5
 42
0.625
 43
3.75
 44
1.25
 45
0.0
 46
0.0
 47
0.0
 48
0.0
140
3.5
141
2.5
142
0.0
143
0.03937
144
1.0
145
0.0
146
1.0
147
0.625
 71
     0
 72
     0
 73
     0
 74
     0
 75
     0
 76
     0
 77
     1
 78
     8
170
     0
171
     3
172
     1
173
     0
174
     0
175
     0
176
     7
177
     7
178
     7
179
     1
270
     2
271
     2
272
     2
273
     2
274
     3
340
73
275
     0
280
     0
281
     0
282
     0
283
     0
284
     8
285
     8
286
     0
287
     3
288
     1
  0
DIMSTYLE
105
258
330
A
100
AcDbSymbolTableRecord
100
AcDbDimStyleTableRecord
  2
ONSHAPE-ISO-25$2
 70
     0
  3

  4

  5

  6

  7

 40
1.0
 41
2.5
 42
0.625
 43
3.75
 44
1.25
 45
0.0
 46
0.0
 47
0.0
 48
0.0
140
3.5
141
2.5
142
0.0
143
0.03937
144
1.0
145
0.0
146
1.0
147
0.625
 71
     0
 72
     0
 73
     0
 74
     0
 75
     0
 76
     0
 77
     1
 78
     8
170
     0
171
     3
172
     1
173
     0
174
     0
175
     0
176
     7
177
     7
178
     7
179
     1
270
     2
271
     2
272
     2
273
     2
274
     3
340
73
275
     0
280
     0
281
     0
282
     0
283
     0
284
     8
285
     8
286
     0
287
     3
288
     1
  0
DIMSTYLE
105
259
330
A
100
AcDbSymbolTableRecord
100
AcDbDimStyleTableRecord
  2
ONSHAPE-ISO-25$3
 70
     0
  3

  4

  5

  6

  7

 40
1.0
 41
2.5
 42
0.625
 43
3.75
 44
1.25
 45
0.0
 46
0.0
 47
0.0
 48
0.0
140
3.5
141
0.0
142
0.0
143
0.03937
144
1.0
145
0.0
146
1.0
147
0.625
 71
     0
 72
     0
 73
     0
 74
     0
 75
     0
 76
     0
 77
     1
 78
     8
170
     0
171
     3
172
     1
173
     0
174
     0
175
     0
176
     7
177
     7
178
     7
179
     1
270
     2
271
     2
272
     2
273
     2
274
     3
340
73
275
     0
280
     0
281
     0
282
     0
283
     0
284
     8
285
     8
286
     0
287
     3
288
     1
  0
DIMSTYLE
105
25A
330
A
100
AcDbSymbolTableRecord
100
AcDbDimStyleTableRecord
  2
ONSHAPE-ISO-25$4
 70
     0
  3

  4

  5

  6

  7

 40
1.0
 41
2.5
 42
0.625
 43
3.75
 44
1.25
 45
0.0
 46
0.0
 47
0.0
 48
0.0
140
3.5
141
0.0
142
0.0
143
0.03937
144
1.0
145
0.0
146
1.0
147
0.625
 71
     0
 72
     0
 73
     0
 74
     0
 75
     0
 76
     0
 77
     1
 78
     8
170
     0
171
     3
172
     1
173
     0
174
     0
175
     0
176
     7
177
     7
178
     7
179
     1
270
     2
271
     2
272
     2
273
     2
274
     3
340
73
275
     0
280
     0
281
     0
282
     0
283
     0
284
     8
285
     8
286
     0
287
     3
288
     1
  0
DIMSTYLE
105
25B
330
A
100
AcDbSymbolTableRecord
100
AcDbDimStyleTableRecord
  2
ONSHAPE-ISO-25$6
 70
     0
  3

  4

  5

  6

  7

 40
1.0
 41
0.5
 42
0.625
 43
3.75
 44
1.25
 45
0.0
 46
0.0
 47
0.0
 48
0.0
140
3.5
141
2.5
142
0.0
143
0.03937
144
1.0
145
0.0
146
1.0
147
0.625
 71
     0
 72
     0
 73
     0
 74
     0
 75
     0
 76
     0
 77
     1
 78
     8
170
     0
171
     3
172
     1
173
     0
174
     0
175
     0
176
     7
177
     7
178
     7
179
     1
270
     2
271
     2
272
     2
273
     2
274
     3
340
73
275
     0
280
     0
281
     0
282
     0
283
     0
284
     8
285
     8
286
     0
287
     3
288
     1
  0
DIMSTYLE
105
25C
330
A
100
AcDbSymbolTableRecord
100
AcDbDimStyleTableRecord
  2
ONSHAPE-ISO-25$7
 70
     0
  3

  4

  5

  6

  7

 40
1.0
 41
2.5
 42
0.625
 43
3.75
 44
1.25
 45
0.0
 46
0.0
 47
0.0
 48
0.0
140
3.5
141
2.5
142
0.0
143
0.03937
144
1.0
145
0.0
146
1.0
147
0.625
 71
     0
 72
     0
 73
     0
 74
     0
 75
     0
 76
     0
 77
     1
 78
     8
170
     0
171
     3
172
     1
173
     0
174
     0
175
     0
176
     7
177
     7
178
     7
179
     1
270
     2
271
     2
272
     2
273
     2
274
     3
340
73
275
     0
280
     0
281
     0
282
     0
283
     0
284
     8
285
     8
286
     0
287
     3
288
     1
  0
DIMSTYLE
105
25D
330
A
100
AcDbSymbolTableRecord
100
AcDbDimStyleTableRecord
  2
ONSHAPE-STANDARD-GTOLERANC
 70
     0
  3

  4

  5

  6

  7

 40
1.0
 41
2.5
 42
0.625
 43
3.75
 44
1.25
 45
0.0
 46
0.0
 47
0.0
 48
0.0
140
3.5
141
2.5
142
0.0
143
0.03937
144
1.0
145
0.0
146
1.0
147
0.625
 71
     0
 72
     0
 73
     0
 74
     0
 75
     0
 76
     0
 77
     1
 78
     8
170
     0
171
     3
172
     1
173
     0
174
     0
175
     0
176
     7
177
     7
178
     7
179
     1
270
     2
271
     2
272
     2
273
     2
274
     3
340
23A
275
     0
280
     0
281
     0
282
     0
283
     0
284
     8
285
     8
286
     0
287
     3
288
     1
  0
DIMSTYLE
105
25F
330
A
100
AcDbSymbolTableRecord
100
AcDbDimStyleTableRecord
  2
ONSHAPE-ORDINATESTYLE
 70
     0
  3

  4

  5

  6

  7

 40
1.0
 41
2.5
 42
0.625
 43
3.75
 44
1.25
 45
0.0
 46
0.0
 47
0.0
 48
0.0
140
3.5
141
2.5
142
0.0
143
0.03937
144
1.0
145
0.0
146
1.0
147
0.625
 71
     0
 72
     0
 73
     0
 74
     0
 75
     0
 76
     0
 77
     1
 78
     8
170
     0
171
     3
172
     1
173
     0
174
     0
175
     0
176
     7
177
     7
178
     7
179
     1
270
     2
271
     2
272
     2
273
     2
274
     3
340
73
275
     0
280
     0
281
     0
282
     0
283
     0
284
     8
285
     8
286
     0
287
     3
288
     1
  0
DIMSTYLE
105
260
330
A
100
AcDbSymbolTableRecord
100
AcDbDimStyleTableRecord
  2
ONSHAPE-CHAMFERDIMSTYLE
 70
     0
  3

  4

  5

  6

  7

 40
1.0
 41
2.5
 42
0.625
 43
3.75
 44
1.25
 45
0.0
 46
0.0
 47
0.0
 48
0.0
140
3.5
141
2.5
142
0.0
143
0.03937
144
1.0
145
0.0
146
1.0
147
0.625
 71
     0
 72
     0
 73
     0
 74
     0
 75
     0
 76
     0
 77
     1
 78
     8
170
     0
171
     3
172
     1
173
     0
174
     0
175
     0
176
     7
177
     7
178
     7
179
     1
270
     2
271
     2
272
     2
273
     2
274
     3
340
73
275
     0
280
     0
281
     0
282
     0
283
     0
284
     8
285
     8
286
     0
287
     3
288
     1
  0
ENDTAB
  0
TABLE
  2
BLOCK_RECORD
  5
1
330
0
100
AcDbSymbolTable
 70
     0
  0
BLOCK_RECORD
  5
1F
330
1
100
AcDbSymbolTableRecord
100
AcDbBlockTableRecord
  2
*MODEL_SPACE
  0
BLOCK_RECORD
  5
1B
330
1
100
AcDbSymbolTableRecord
100
AcDbBlockTableRecord
  2
*PAPER_SPACE
  0
ENDTAB
  0
ENDSEC
  0
SECTION
  2
BLOCKS
  0
BLOCK
  5
20
330
1F
100
AcDbEntity
  8
0
100
AcDbBlockBegin
  2
*MODEL_SPACE
 70
     0
 10
0.0
 20
0.0
 30
0.0
  3
*MODEL_SPACE
  1

  0
ENDBLK
  5
21
330
1F
100
AcDbEntity
  8
0
100
AcDbBlockEnd
  0
BLOCK
  5
1C
330
1B
100
AcDbEntity
 67
     1
  8
0
100
AcDbBlockBegin
  2
*PAPER_SPACE
 70
     0
 10
0.0
 20
0.0
 30
0.0
  3
*PAPER_SPACE
  1

  0
ENDBLK
  5
1D
330
1B
100
AcDbEntity
 67
     1
  8
0
100
AcDbBlockEnd
  0
ENDSEC
  0
SECTION
  2
ENTITIES
  0
MTEXT
  5
74
102
{ACAD_XDICTIONARY
360
75
102
}
330
1F
100
AcDbEntity
  8
ANNOTATION_TEXT
 62
     7
 60
     1
100
AcDbMText
 10
712.6314290001112
 20
68.2838399386099
 30
0.0
 40
3.5
 41
0.0
 71
     2
 72
     1
  1

  7
ONSHAPE-STANDARD-VIEW-LABE
1001
ACAD
1000
ACAD_MTEXT_DEFINED_HEIGHT_BEGIN
1070
    46
1040
3.5
1000
ACAD_MTEXT_DEFINED_HEIGHT_END
  0
MTEXT
  5
7A
102
{ACAD_XDICTIONARY
360
7B
102
}
330
1F
100
AcDbEntity
  8
ANNOTATION_TEXT
 62
     7
 60
     1
100
AcDbMText
 10
176.1732489839525
 20
222.6315434527363
 30
0.0
 40
3.5
 41
0.0
 71
     2
 72
     1
  1

  7
ONSHAPE-STANDARD-VIEW-LABE
1001
ACAD
1000
ACAD_MTEXT_DEFINED_HEIGHT_BEGIN
1070
    46
1040
3.5
1000
ACAD_MTEXT_DEFINED_HEIGHT_END
  0
MTEXT
  5
7D
102
{ACAD_XDICTIONARY
360
7E
102
}
330
1F
100
AcDbEntity
  8
ANNOTATION_TEXT
 62
     7
 60
     1
100
AcDbMText
 10
196.3987072607396
 20
38.12130526858854
 30
0.0
 40
3.5
 41
0.0
 71
     2
 72
     1
  1

  7
ONSHAPE-STANDARD-VIEW-LABE
1001
ACAD
1000
ACAD_MTEXT_DEFINED_HEIGHT_BEGIN
1070
    46
1040
3.5
1000
ACAD_MTEXT_DEFINED_HEIGHT_END
  0
MTEXT
  5
80
102
{ACAD_XDICTIONARY
360
81
102
}
330
1F
100
AcDbEntity
  8
ANNOTATION_TEXT
 62
     7
 60
     1
100
AcDbMText
 10
469.754586076853
 20
-0.0257843335797077
 30
0.0
 40
3.5
 41
0.0
 71
     2
 72
     1
  1

  7
ONSHAPE-STANDARD-VIEW-LABE
1001
ACAD
1000
ACAD_MTEXT_DEFINED_HEIGHT_BEGIN
1070
    46
1040
3.5
1000
ACAD_MTEXT_DEFINED_HEIGHT_END
  0
MTEXT
  5
83
102
{ACAD_XDICTIONARY
360
84
102
}
330
1F
100
AcDbEntity
  8
ANNOTATION_TEXT
 62
     7
 60
     1
100
AcDbMText
 10
456.8907980503734
 20
357.0467799209466
 30
0.0
 40
3.5
 41
0.0
 71
     2
 72
     1
  1

  7
ONSHAPE-STANDARD-VIEW-LABE
1001
ACAD
1000
ACAD_MTEXT_DEFINED_HEIGHT_BEGIN
1070
    46
1040
3.5
1000
ACAD_MTEXT_DEFINED_HEIGHT_END
  0
MTEXT
  5
86
102
{ACAD_XDICTIONARY
360
87
102
}
330
1F
100
AcDbEntity
  8
ANNOTATION_TEXT
 62
     7
 60
     1
100
AcDbMText
 10
178.758433227586
 20
403.2421931572907
 30
0.0
 40
3.5
 41
0.0
 71
     2
 72
     1
  1

  7
ONSHAPE-STANDARD-VIEW-LABE
1001
ACAD
1000
ACAD_MTEXT_DEFINED_HEIGHT_BEGIN
1070
    46
1040
3.5
1000
ACAD_MTEXT_DEFINED_HEIGHT_END
  0
MTEXT
  5
8D
330
1F
100
AcDbEntity
  8
ANNOTATION_TEXT
 62
     7
 60
     1
100
AcDbMText
 10
357.9629777891089
 20
465.5390361299579
 30
0.0
 40
3.5
 41
0.0
 71
     2
 72
     1
  1
{\fNoto Sans;DOWN 90,0° R2}
  7
ONSHAPE-STANDARD-DIMENSION
 11
0.0
 21
1.0
 31
-1.387778780781447E-16
1001
ACAD
1000
ACAD_MTEXT_DEFINED_HEIGHT_BEGIN
1070
    46
1040
4.125
1000
ACAD_MTEXT_DEFINED_HEIGHT_END
  0
MTEXT
  5
92
330
1F
100
AcDbEntity
  8
ANNOTATION_TEXT
 62
     7
 60
     1
100
AcDbMText
 10
456.8907980503734
 20
520.7649762170461
 30
0.0
 40
3.5
 41
0.0
 71
     2
 72
     1
  1
{\fNoto Sans;UP 90,0° R2}
  7
ONSHAPE-STANDARD-DIMENSION
1001
ACAD
1000
ACAD_MTEXT_DEFINED_HEIGHT_BEGIN
1070
    46
1040
4.125
1000
ACAD_MTEXT_DEFINED_HEIGHT_END
  0
MTEXT
  5
97
330
1F
100
AcDbEntity
  8
ANNOTATION_TEXT
 62
     7
 60
     1
100
AcDbMText
 10
547.5686183116379
 20
465.5390361299579
 30
0.0
 40
3.5
 41
0.0
 71
     2
 72
     1
  1
{\fNoto Sans;DOWN 90,0° R2}
  7
ONSHAPE-STANDARD-DIMENSION
 11
0.0
 21
1.0
 31
-1.387778780781446E-16
1001
ACAD
1000
ACAD_MTEXT_DEFINED_HEIGHT_BEGIN
1070
    46
1040
4.125
1000
ACAD_MTEXT_DEFINED_HEIGHT_END
  0
MTEXT
  5
9C
330
1F
100
AcDbEntity
  8
ANNOTATION_TEXT
 62
     7
 60
     1
100
AcDbMText
 10
401.6648579632852
 20
465.539036129958
 30
0.0
 40
3.5
 41
0.0
 71
     2
 72
     1
  1
{\fNoto Sans;UP 90,0° R2}
  7
ONSHAPE-STANDARD-DIMENSION
 11
0.0
 21
1.0
 31
-1.487622876949280E-16
1001
ACAD
1000
ACAD_MTEXT_DEFINED_HEIGHT_BEGIN
1070
    46
1040
4.125
1000
ACAD_MTEXT_DEFINED_HEIGHT_END
  0
MTEXT
  5
A1
330
1F
100
AcDbEntity
  8
ANNOTATION_TEXT
 62
     7
 60
     1
100
AcDbMText
 10
503.8667381374616
 20
465.5390361299579
 30
0.0
 40
3.5
 41
0.0
 71
     2
 72
     1
  1
{\fNoto Sans;UP 90,0° R2}
  7
ONSHAPE-STANDARD-DIMENSION
 11
0.0
 21
1.0
 31
-1.487622876949282E-16
1001
ACAD
1000
ACAD_MTEXT_DEFINED_HEIGHT_BEGIN
1070
    46
1040
4.125
1000
ACAD_MTEXT_DEFINED_HEIGHT_END
  0
MTEXT
  5
A6
330
1F
100
AcDbEntity
  8
ANNOTATION_TEXT
 62
     7
 60
     1
100
AcDbMText
 10
456.8907980503735
 20
418.5630960428699
 30
0.0
 40
3.5
 41
0.0
 71
     2
 72
     1
  1
{\fNoto Sans;UP 90,0° R2}
  7
ONSHAPE-STANDARD-DIMENSION
1001
ACAD
1000
ACAD_MTEXT_DEFINED_HEIGHT_BEGIN
1070
    46
1040
4.125
1000
ACAD_MTEXT_DEFINED_HEIGHT_END
  0
MTEXT
  5
AB
330
1F
100
AcDbEntity
  8
ANNOTATION_TEXT
 62
     7
 60
     1
100
AcDbMText
 10
97.03249314049782
 20
464.7623811747084
 30
0.0
 40
3.5
 41
0.0
 71
     2
 72
     1
  1
{\fNoto Sans;UP 90,0° R2}
  7
ONSHAPE-STANDARD-DIMENSION
 11
0.0
 21
1.0
 31
0.0
1001
ACAD
1000
ACAD_MTEXT_DEFINED_HEIGHT_BEGIN
1070
    46
1040
4.125
1000
ACAD_MTEXT_DEFINED_HEIGHT_END
  0
MTEXT
  5
B0
330
1F
100
AcDbEntity
  8
ANNOTATION_TEXT
 62
     7
 60
     1
100
AcDbMText
 10
252.2343733146742
 20
464.7623811747084
 30
0.0
 40
3.5
 41
0.0
 71
     2
 72
     1
  1
{\fNoto Sans;UP 90,0° R2}
  7
ONSHAPE-STANDARD-DIMENSION
 11
0.0
 21
1.0
 31
0.0
1001
ACAD
1000
ACAD_MTEXT_DEFINED_HEIGHT_BEGIN
1070
    46
1040
4.125
1000
ACAD_MTEXT_DEFINED_HEIGHT_END
  0
MTEXT
  5
B5
330
1F
100
AcDbEntity
  8
ANNOTATION_TEXT
 62
     7
 60
     1
100
AcDbMText
 10
712.6314290001112
 20
445.1925688824268
 30
0.0
 40
3.5
 41
0.0
 71
     2
 72
     1
  1
{\fNoto Sans;UP 120,0° R2}
  7
ONSHAPE-STANDARD-DIMENSION
1001
ACAD
1000
ACAD_MTEXT_DEFINED_HEIGHT_BEGIN
1070
    46
1040
4.125
1000
ACAD_MTEXT_DEFINED_HEIGHT_END
  0
MTEXT
  5
BA
330
1F
100
AcDbEntity
  8
ANNOTATION_TEXT
 62
     7
 60
     1
100
AcDbMText
 10
712.6314290001112
 20
264.3215063362252
 30
0.0
 40
3.5
 41
0.0
 71
     2
 72
     1
  1
{\fNoto Sans;UP 60,0° R2}
  7
ONSHAPE-STANDARD-DIMENSION
1001
ACAD
1000
ACAD_MTEXT_DEFINED_HEIGHT_BEGIN
1070
    46
1040
4.125
1000
ACAD_MTEXT_DEFINED_HEIGHT_END
  0
MTEXT
  5
BF
330
1F
100
AcDbEntity
  8
ANNOTATION_TEXT
 62
     7
 60
     1
100
AcDbMText
 10
469.754586076853
 20
178.6852497622173
 30
0.0
 40
3.5
 41
0.0
 71
     2
 72
     1
  1
{\fNoto Sans;UP 90,0° R2}
  7
ONSHAPE-STANDARD-DIMENSION
1001
ACAD
1000
ACAD_MTEXT_DEFINED_HEIGHT_BEGIN
1070
    46
1040
4.125
1000
ACAD_MTEXT_DEFINED_HEIGHT_END
  0
CIRCLE
  5
C4
330
1F
100
AcDbEntity
  8
VISIBLE
100
AcDbCircle
 10
779.6314290001112
 20
349.7663154329762
 30
0.0
 40
1.5
  0
CIRCLE
  5
C5
330
1F
100
AcDbEntity
  8
VISIBLE
100
AcDbCircle
 10
782.6114290001112
 20
294.7663154329761
 30
0.0
 40
4.55
  0
CIRCLE
  5
C6
330
1F
100
AcDbEntity
  8
VISIBLE
100
AcDbCircle
 10
642.6514290001112
 20
294.7663154329761
 30
0.0
 40
3.1
  0
CIRCLE
  5
C7
330
1F
100
AcDbEntity
  8
VISIBLE
100
AcDbCircle
 10
672.6514290001112
 20
294.7663154329761
 30
0.0
 40
3.1
  0
CIRCLE
  5
C8
330
1F
100
AcDbEntity
  8
VISIBLE
100
AcDbCircle
 10
702.6514290001112
 20
294.7663154329761
 30
0.0
 40
3.1
  0
CIRCLE
  5
C9
330
1F
100
AcDbEntity
  8
VISIBLE
100
AcDbCircle
 10
732.6514290001112
 20
294.7663154329761
 30
0.0
 40
3.1
  0
CIRCLE
  5
CA
330
1F
100
AcDbEntity
  8
VISIBLE
100
AcDbCircle
 10
651.6514290001112
 20
349.7663154329762
 30
0.0
 40
3.6
  0
CIRCLE
  5
CB
330
1F
100
AcDbEntity
  8
VISIBLE
100
AcDbCircle
 10
712.6314290001112
 20
417.7663154329762
 30
0.0
 40
5.100000000000001
  0
CIRCLE
  5
CC
330
1F
100
AcDbEntity
  8
VISIBLE
100
AcDbCircle
 10
712.6314290001112
 20
391.7663154329762
 30
0.0
 40
6.100000000000001
  0
CIRCLE
  5
CD
330
1F
100
AcDbEntity
  8
VISIBLE
100
AcDbCircle
 10
783.6314290001112
 20
404.7663154329762
 30
0.0
 40
17.0
  0
CIRCLE
  5
CE
330
1F
100
AcDbEntity
  8
VISIBLE
100
AcDbCircle
 10
675.6514290001112
 20
349.7663154329762
 30
0.0
 40
3.6
  0
CIRCLE
  5
CF
330
1F
100
AcDbEntity
  8
VISIBLE
100
AcDbCircle
 10
699.6514290001112
 20
349.7663154329762
 30
0.0
 40
3.6
  0
CIRCLE
  5
D0
330
1F
100
AcDbEntity
  8
VISIBLE
100
AcDbCircle
 10
723.6514290001112
 20
349.7663154329762
 30
0.0
 40
3.6
  0
CIRCLE
  5
D1
330
1F
100
AcDbEntity
  8
VISIBLE
100
AcDbCircle
 10
789.6314290001112
 20
349.7663154329762
 30
0.0
 40
4.100000000000001
  0
CIRCLE
  5
D2
330
1F
100
AcDbEntity
  8
VISIBLE
100
AcDbCircle
 10
641.6314290001112
 20
404.7663154329762
 30
0.0
 40
17.0
  0
CIRCLE
  5
D3
330
1F
100
AcDbEntity
  8
VISIBLE
100
AcDbCircle
 10
729.6114290001112
 20
489.3688223318777
 30
0.0
 40
1.6
  0
CIRCLE
  5
D4
330
1F
100
AcDbEntity
  8
VISIBLE
100
AcDbCircle
 10
622.6514290001112
 20
463.8688223318777
 30
0.0
 40
2.1
  0
CIRCLE
  5
D5
330
1F
100
AcDbEntity
  8
VISIBLE
100
AcDbCircle
 10
802.6114290001112
 20
463.8688223318777
 30
0.0
 40
2.1
  0
CIRCLE
  5
D6
330
1F
100
AcDbEntity
  8
VISIBLE
100
AcDbCircle
 10
814.6114290001112
 20
523.3688223318777
 30
0.0
 40
1.65
  0
CIRCLE
  5
D7
330
1F
100
AcDbEntity
  8
VISIBLE
100
AcDbCircle
 10
610.6514290001112
 20
523.3688223318777
 30
0.0
 40
1.65
  0
CIRCLE
  5
D8
330
1F
100
AcDbEntity
  8
VISIBLE
100
AcDbCircle
 10
729.6114290001112
 20
529.3688223318777
 30
0.0
 40
1.6
  0
CIRCLE
  5
D9
330
1F
100
AcDbEntity
  8
VISIBLE
100
AcDbCircle
 10
780.6114290001112
 20
529.3688223318777
 30
0.0
 40
1.6
  0
CIRCLE
  5
DA
330
1F
100
AcDbEntity
  8
VISIBLE
100
AcDbCircle
 10
780.6114290001112
 20
489.3688223318777
 30
0.0
 40
1.6
  0
LINE
  5
DB
330
1F
100
AcDbEntity
  8
VISIBLE
100
AcDbLine
 10
822.6114290001112
 20
92.1926486240036
 30
0.0
 11
602.6514290001112
 21
92.1926486240036
 31
0.0
  0
LINE
  5
DC
330
1F
100
AcDbEntity
  8
VISIBLE
100
AcDbLine
 10
822.6114290001112
 20
438.2663154329758
 30
0.0
 11
822.6114290001112
 21
261.5971330609502
 31
0.0
  0
LINE
  5
DD
330
1F
100
AcDbEntity
  8
VISIBLE
100
AcDbLine
 10
602.6514290001112
 20
92.1926486240036
 30
0.0
 11
602.6514290001112
 21
258.7958796114991
 31
0.0
  0
LINE
  5
DE
330
1F
100
AcDbEntity
  8
VISIBLE
100
AcDbLine
 10
602.6514290001112
 20
438.2663154329761
 30
0.0
 11
602.6514290001112
 21
443.8688223318777
 31
0.0
  0
LINE
  5
DF
330
1F
100
AcDbEntity
  8
VISIBLE
100
AcDbLine
 10
602.6514290001112
 20
258.7958796114991
 30
0.0
 11
602.6514290001112
 21
261.5971330609502
 31
0.0
  0
LINE
  5
E0
330
1F
100
AcDbEntity
  8
VISIBLE
100
AcDbLine
 10
822.6114290001112
 20
92.1926486240036
 30
0.0
 11
822.6114290001112
 21
258.7958796114996
 31
0.0
  0
LINE
  5
E1
330
1F
100
AcDbEntity
  8
VISIBLE
100
AcDbLine
 10
822.6114290001112
 20
261.5971330609502
 30
0.0
 11
822.6114290001112
 21
258.7958796114996
 31
0.0
  0
LINE
  5
E2
330
1F
100
AcDbEntity
  8
VISIBLE
100
AcDbLine
 10
602.6514290001112
 20
438.2663154329761
 30
0.0
 11
602.6514290001112
 21
261.5971330609502
 31
0.0
  0
LINE
  5
E3
330
1F
100
AcDbEntity
  8
VISIBLE
100
AcDbLine
 10
822.6114290001112
 20
535.3688223318777
 30
0.0
 11
822.6114290001112
 21
443.8688223318777
 31
0.0
  0
LINE
  5
E4
330
1F
100
AcDbEntity
  8
VISIBLE
100
AcDbLine
 10
822.6114290001112
 20
443.8688223318777
 30
0.0
 11
822.6114290001112
 21
438.2663154329758
 31
0.0
  0
LINE
  5
E5
330
1F
100
AcDbEntity
  8
VISIBLE
100
AcDbLine
 10
602.6514290001112
 20
535.3688223318777
 30
0.0
 11
822.6114290001112
 21
535.3688223318777
 31
0.0
  0
LINE
  5
E6
330
1F
100
AcDbEntity
  8
VISIBLE
100
AcDbLine
 10
602.6514290001112
 20
535.3688223318777
 30
0.0
 11
602.6514290001112
 21
443.8688223318777
 31
0.0
  0
LINE
  5
E7
330
1F
100
AcDbEntity
  8
SHEETMETAL_BEND_LINES_UP
100
AcDbLine
 10
822.6114290001112
 20
441.0675688824268
 30
0.0
 11
602.6514290001112
 21
441.0675688824268
 31
0.0
  0
LINE
  5
E8
330
1F
100
AcDbEntity
  8
SHEETMETAL_BEND_LINES_UP
100
AcDbLine
 10
822.6114290001112
 20
260.1965063362252
 30
0.0
 11
602.6514290001112
 21
260.1965063362252
 31
0.0
  0
ARC
  5
EB
330
1F
100
AcDbEntity
  8
VISIBLE
100
AcDbCircle
 10
301.8748395626313
 20
392.1117025106042
 30
0.0
 40
2.0
100
AcDbArc
 50
0.0
 51
90.0
  0
ARC
  5
EC
330
1F
100
AcDbEntity
  8
VISIBLE
100
AcDbCircle
 10
50.47165840527367
 20
392.1117025106042
 30
0.0
 40
2.0
100
AcDbArc
 50
90.0
 51
210.0000000000018
  0
ARC
  5
ED
330
1F
100
AcDbEntity
  8
VISIBLE
100
AcDbCircle
 10
138.783155580519
 20
239.1517025106042
 30
0.0
 40
2.0
100
AcDbArc
 50
209.9999999999997
 51
270.0
  0
LINE
  5
EE
330
1F
100
AcDbEntity
  8
VISIBLE
100
AcDbLine
 10
301.8748395626313
 20
394.1117025106042
 30
0.0
 11
50.47165840527367
 21
394.1117025106042
 31
0.0
  0
LINE
  5
EF
330
1F
100
AcDbEntity
  8
VISIBLE
100
AcDbLine
 10
48.73960759770488
 20
391.1117025106042
 30
0.0
 11
137.0511047729501
 21
238.1517025106042
 31
0.0
  0
LINE
  5
F0
330
1F
100
AcDbEntity
  8
VISIBLE
100
AcDbLine
 10
303.8748395626313
 20
237.1517025106042
 30
0.0
 11
138.783155580519
 21
237.1517025106042
 31
0.0
  0
LINE
  5
F1
330
1F
100
AcDbEntity
  8
VISIBLE
100
AcDbLine
 10
303.8748395626313
 20
237.1517025106042
 30
0.0
 11
303.8748395626313
 21
392.1117025106042
 31
0.0
  0
ARC
  5
F4
330
1F
100
AcDbEntity
  8
VISIBLE
100
AcDbCircle
 10
233.7888006641732
 20
54.6414643264564
 30
0.0
 40
2.0
100
AcDbArc
 50
270.0
 51
329.9999999999997
  0
ARC
  5
F5
330
1F
100
AcDbEntity
  8
VISIBLE
100
AcDbCircle
 10
70.69711668206091
 20
207.6014643264564
 30
0.0
 40
2.0
100
AcDbArc
 50
90.0
 51
180.0
  0
ARC
  5
F6
330
1F
100
AcDbEntity
  8
VISIBLE
100
AcDbCircle
 10
322.1002978394183
 20
207.6014643264564
 30
0.0
 40
2.0
100
AcDbArc
 50
330.0000000000016
 51
90.0
  0
LINE
  5
F7
330
1F
100
AcDbEntity
  8
VISIBLE
100
AcDbLine
 10
323.8323486469873
 20
206.6014643264564
 30
0.0
 11
235.520851471742
 21
53.6414643264564
 31
0.0
  0
LINE
  5
F8
330
1F
100
AcDbEntity
  8
VISIBLE
100
AcDbLine
 10
70.69711668206091
 20
209.6014643264564
 30
0.0
 11
322.1002978394183
 21
209.6014643264564
 31
0.0
  0
LINE
  5
F9
330
1F
100
AcDbEntity
  8
VISIBLE
100
AcDbLine
 10
68.69711668206091
 20
52.6414643264564
 30
0.0
 11
68.69711668206091
 21
207.6014643264564
 31
0.0
  0
LINE
  5
FA
330
1F
100
AcDbEntity
  8
VISIBLE
100
AcDbLine
 10
68.69711668206091
 20
52.6414643264564
 30
0.0
 11
233.7888006641732
 21
52.6414643264564
 31
0.0
  0
CIRCLE
  5
FF
330
1F
100
AcDbEntity
  8
VISIBLE
100
AcDbCircle
 10
568.409820694163
 20
23.39092039489461
 30
0.0
 40
1.65
  0
CIRCLE
  5
100
330
1F
100
AcDbEntity
  8
VISIBLE
100
AcDbCircle
 10
571.5476625689525
 20
162.1554473762844
 30
0.0
 40
1.65
  0
CIRCLE
  5
101
330
1F
100
AcDbEntity
  8
VISIBLE
100
AcDbCircle
 10
419.673535084841
 20
132.423842437895
 30
0.0
 40
1.6
  0
CIRCLE
  5
102
330
1F
100
AcDbEntity
  8
VISIBLE
100
AcDbCircle
 10
431.504586076853
 20
61.45930967512911
 30
0.0
 40
5.850000000000001
  0
CIRCLE
  5
103
330
1F
100
AcDbEntity
  8
VISIBLE
100
AcDbCircle
 10
431.504586076853
 20
79.9593096751291
 30
0.0
 40
5.850000000000001
  0
CIRCLE
  5
104
330
1F
100
AcDbEntity
  8
VISIBLE
100
AcDbCircle
 10
457.004586076853
 20
61.45930967512911
 30
0.0
 40
5.850000000000001
  0
CIRCLE
  5
105
330
1F
100
AcDbEntity
  8
VISIBLE
100
AcDbCircle
 10
457.004586076853
 20
79.9593096751291
 30
0.0
 40
5.850000000000001
  0
CIRCLE
  5
106
330
1F
100
AcDbEntity
  8
VISIBLE
100
AcDbCircle
 10
482.504586076853
 20
61.45930967512911
 30
0.0
 40
5.850000000000001
  0
CIRCLE
  5
107
330
1F
100
AcDbEntity
  8
VISIBLE
100
AcDbCircle
 10
482.504586076853
 20
79.9593096751291
 30
0.0
 40
5.850000000000001
  0
CIRCLE
  5
108
330
1F
100
AcDbEntity
  8
VISIBLE
100
AcDbCircle
 10
508.004586076853
 20
61.45930967512911
 30
0.0
 40
5.850000000000001
  0
CIRCLE
  5
109
330
1F
100
AcDbEntity
  8
VISIBLE
100
AcDbCircle
 10
508.004586076853
 20
79.9593096751291
 30
0.0
 40
5.850000000000001
  0
CIRCLE
  5
10A
330
1F
100
AcDbEntity
  8
VISIBLE
100
AcDbCircle
 10
464.754586076853
 20
135.2093096751291
 30
0.0
 40
3.3
  0
CIRCLE
  5
10B
330
1F
100
AcDbEntity
  8
VISIBLE
100
AcDbCircle
 10
489.754586076853
 20
135.2093096751291
 30
0.0
 40
3.3
  0
CIRCLE
  5
10C
330
1F
100
AcDbEntity
  8
VISIBLE
100
AcDbCircle
 10
529.754586076853
 20
135.2093096751291
 30
0.0
 40
3.3
  0
CIRCLE
  5
10D
330
1F
100
AcDbEntity
  8
VISIBLE
100
AcDbCircle
 10
554.754586076853
 20
135.2093096751291
 30
0.0
 40
3.3
  0
CIRCLE
  5
10E
330
1F
100
AcDbEntity
  8
VISIBLE
100
AcDbCircle
 10
379.673535084841
 20
132.423842437895
 30
0.0
 40
1.6
  0
CIRCLE
  5
10F
330
1F
100
AcDbEntity
  8
VISIBLE
100
AcDbCircle
 10
367.754586076853
 20
25.65930967512912
 30
0.0
 40
1.65
  0
CIRCLE
  5
110
330
1F
100
AcDbEntity
  8
VISIBLE
100
AcDbCircle
 10
367.754586076853
 20
164.4593096751291
 30
0.0
 40
1.65
  0
CIRCLE
  5
111
330
1F
100
AcDbEntity
  8
VISIBLE
100
AcDbCircle
 10
468.0950253533388
 20
25.65930967512912
 30
0.0
 40
1.65
  0
CIRCLE
  5
112
330
1F
100
AcDbEntity
  8
VISIBLE
100
AcDbCircle
 10
469.754586076853
 20
203.3611898493054
 30
0.0
 40
1.6
  0
CIRCLE
  5
113
330
1F
100
AcDbEntity
  8
VISIBLE
100
AcDbCircle
 10
550.754586076853
 20
305.8611898493053
 30
0.0
 40
2.1
  0
CIRCLE
  5
114
330
1F
100
AcDbEntity
  8
VISIBLE
100
AcDbCircle
 10
463.754586076853
 20
305.8611898493053
 30
0.0
 40
2.1
  0
CIRCLE
  5
115
330
1F
100
AcDbEntity
  8
VISIBLE
100
AcDbCircle
 10
463.754586076853
 20
218.8611898493054
 30
0.0
 40
2.1
  0
CIRCLE
  5
116
330
1F
100
AcDbEntity
  8
VISIBLE
100
AcDbCircle
 10
550.754586076853
 20
218.8611898493054
 30
0.0
 40
2.1
  0
CIRCLE
  5
117
330
1F
100
AcDbEntity
  8
VISIBLE
100
AcDbCircle
 10
544.754586076853
 20
203.3611898493054
 30
0.0
 40
1.6
  0
CIRCLE
  5
118
330
1F
100
AcDbEntity
  8
VISIBLE
100
AcDbCircle
 10
544.754586076853
 20
321.3611898493054
 30
0.0
 40
1.6
  0
CIRCLE
  5
119
330
1F
100
AcDbEntity
  8
VISIBLE
100
AcDbCircle
 10
469.7545860768529
 20
321.3611898493053
 30
0.0
 40
1.6
  0
CIRCLE
  5
11A
330
1F
100
AcDbEntity
  8
VISIBLE
100
AcDbCircle
 10
559.754586076853
 20
196.6611898493055
 30
0.0
 40
2.1
  0
CIRCLE
  5
11B
330
1F
100
AcDbEntity
  8
VISIBLE
100
AcDbCircle
 10
571.754586076853
 20
196.6611898493055
 30
0.0
 40
1.65
  0
CIRCLE
  5
11C
330
1F
100
AcDbEntity
  8
VISIBLE
100
AcDbCircle
 10
367.754586076853
 20
196.6611898493055
 30
0.0
 40
1.65
  0
CIRCLE
  5
11D
330
1F
100
AcDbEntity
  8
VISIBLE
100
AcDbCircle
 10
367.754586076853
 20
324.3611898493053
 30
0.0
 40
1.65
  0
CIRCLE
  5
11E
330
1F
100
AcDbEntity
  8
VISIBLE
100
AcDbCircle
 10
379.754586076853
 20
196.6611898493055
 30
0.0
 40
2.1
  0
CIRCLE
  5
11F
330
1F
100
AcDbEntity
  8
VISIBLE
100
AcDbCircle
 10
571.754586076853
 20
324.3611898493053
 30
0.0
 40
1.65
  0
LINE
  5
120
330
1F
100
AcDbEntity
  8
VISIBLE
100
AcDbLine
 10
579.754586076853
 20
176.6611898493055
 30
0.0
 11
579.754586076853
 21
172.4593096751291
 31
0.0
  0
LINE
  5
121
330
1F
100
AcDbEntity
  8
VISIBLE
100
AcDbLine
 10
579.754586076853
 20
336.3611898493056
 30
0.0
 11
359.754586076853
 21
336.3611898493056
 31
0.0
  0
LINE
  5
122
330
1F
100
AcDbEntity
  8
VISIBLE
100
AcDbLine
 10
579.754586076853
 20
176.6611898493055
 30
0.0
 11
579.754586076853
 21
336.3611898493056
 31
0.0
  0
LINE
  5
123
330
1F
100
AcDbEntity
  8
VISIBLE
100
AcDbLine
 10
435.504586076853
 20
46.45930967512911
 30
0.0
 11
435.504586076853
 21
34.45930967512911
 31
0.0
  0
LINE
  5
124
330
1F
100
AcDbEntity
  8
VISIBLE
100
AcDbLine
 10
399.504586076853
 20
84.4593096751291
 30
0.0
 11
399.504586076853
 21
34.45930967512911
 31
0.0
  0
LINE
  5
125
330
1F
100
AcDbEntity
  8
VISIBLE
100
AcDbLine
 10
519.504586076853
 20
46.45930967512911
 30
0.0
 11
519.504586076853
 21
34.45930967512911
 31
0.0
  0
LINE
  5
126
330
1F
100
AcDbEntity
  8
VISIBLE
100
AcDbLine
 10
495.504586076853
 20
46.45930967512911
 30
0.0
 11
495.504586076853
 21
34.45930967512911
 31
0.0
  0
LINE
  5
127
330
1F
100
AcDbEntity
  8
VISIBLE
100
AcDbLine
 10
483.504586076853
 20
46.45930967512911
 30
0.0
 11
483.504586076853
 21
34.45930967512911
 31
0.0
  0
LINE
  5
128
330
1F
100
AcDbEntity
  8
VISIBLE
100
AcDbLine
 10
471.504586076853
 20
46.45930967512911
 30
0.0
 11
471.504586076853
 21
34.45930967512911
 31
0.0
  0
LINE
  5
129
330
1F
100
AcDbEntity
  8
VISIBLE
100
AcDbLine
 10
459.504586076853
 20
46.45930967512911
 30
0.0
 11
459.504586076853
 21
34.45930967512911
 31
0.0
  0
LINE
  5
12A
330
1F
100
AcDbEntity
  8
VISIBLE
100
AcDbLine
 10
359.754586076853
 20
17.65930967512912
 30
0.0
 11
359.754586076853
 21
172.4593096751291
 31
0.0
  0
LINE
  5
12B
330
1F
100
AcDbEntity
  8
VISIBLE
100
AcDbLine
 10
552.004586076853
 20
84.4593096751291
 30
0.0
 11
552.004586076853
 21
34.45930967512911
 31
0.0
  0
LINE
  5
12C
330
1F
100
AcDbEntity
  8
VISIBLE
100
AcDbLine
 10
384.923535084841
 20
101.923842437895
 30
0.0
 11
414.423535084841
 21
101.923842437895
 31
0.0
  0
LINE
  5
12D
330
1F
100
AcDbEntity
  8
VISIBLE
100
AcDbLine
 10
555.504586076853
 20
84.4593096751291
 30
0.0
 11
555.504586076853
 21
34.45930967512911
 31
0.0
  0
LINE
  5
12E
330
1F
100
AcDbEntity
  8
VISIBLE
100
AcDbLine
 10
543.504586076853
 20
84.4593096751291
 30
0.0
 11
543.504586076853
 21
34.45930967512911
 31
0.0
  0
LINE
  5
12F
330
1F
100
AcDbEntity
  8
VISIBLE
100
AcDbLine
 10
447.504586076853
 20
163.4593096751291
 30
0.0
 11
447.504586076853
 21
151.4593096751291
 31
0.0
  0
LINE
  5
130
330
1F
100
AcDbEntity
  8
VISIBLE
100
AcDbLine
 10
435.504586076853
 20
163.4593096751291
 30
0.0
 11
435.504586076853
 21
151.4593096751291
 31
0.0
  0
LINE
  5
131
330
1F
100
AcDbEntity
  8
VISIBLE
100
AcDbLine
 10
504.004586076853
 20
163.4593096751291
 30
0.0
 11
504.004586076853
 21
151.4593096751291
 31
0.0
  0
LINE
  5
132
330
1F
100
AcDbEntity
  8
VISIBLE
100
AcDbLine
 10
384.004586076853
 20
84.4593096751291
 30
0.0
 11
384.004586076853
 21
34.45930967512911
 31
0.0
  0
LINE
  5
133
330
1F
100
AcDbEntity
  8
VISIBLE
100
AcDbLine
 10
384.923535084841
 20
162.923842437895
 30
0.0
 11
414.423535084841
 21
162.923842437895
 31
0.0
  0
LINE
  5
134
330
1F
100
AcDbEntity
  8
VISIBLE
100
AcDbLine
 10
480.004586076853
 20
163.4593096751291
 30
0.0
 11
480.004586076853
 21
151.4593096751291
 31
0.0
  0
LINE
  5
135
330
1F
100
AcDbEntity
  8
VISIBLE
100
AcDbLine
 10
468.004586076853
 20
46.45930967512911
 30
0.0
 11
468.004586076853
 21
34.45930967512911
 31
0.0
  0
LINE
  5
136
330
1F
100
AcDbEntity
  8
VISIBLE
100
AcDbLine
 10
359.754586076853
 20
172.4593096751291
 30
0.0
 11
359.754586076853
 21
176.6611898493055
 31
0.0
  0
LINE
  5
137
330
1F
100
AcDbEntity
  8
VISIBLE
100
AcDbLine
 10
447.504586076853
 20
46.45930967512911
 30
0.0
 11
447.504586076853
 21
34.45930967512911
 31
0.0
  0
LINE
  5
138
330
1F
100
AcDbEntity
  8
VISIBLE
100
AcDbLine
 10
384.923535084841
 20
162.923842437895
 30
0.0
 11
384.923535084841
 21
101.923842437895
 31
0.0
  0
LINE
  5
139
330
1F
100
AcDbEntity
  8
VISIBLE
100
AcDbLine
 10
432.004586076853
 20
46.45930967512911
 30
0.0
 11
432.004586076853
 21
34.45930967512911
 31
0.0
  0
LINE
  5
13A
330
1F
100
AcDbEntity
  8
VISIBLE
100
AcDbLine
 10
423.504586076853
 20
46.45930967512911
 30
0.0
 11
423.504586076853
 21
34.45930967512911
 31
0.0
  0
LINE
  5
13B
330
1F
100
AcDbEntity
  8
VISIBLE
100
AcDbLine
 10
359.754586076853
 20
176.6611898493055
 30
0.0
 11
359.754586076853
 21
336.3611898493056
 31
0.0
  0
LINE
  5
13C
330
1F
100
AcDbEntity
  8
VISIBLE
100
AcDbLine
 10
456.004586076853
 20
46.45930967512911
 30
0.0
 11
456.004586076853
 21
34.45930967512911
 31
0.0
  0
LINE
  5
13D
330
1F
100
AcDbEntity
  8
VISIBLE
100
AcDbLine
 10
420.004586076853
 20
46.45930967512911
 30
0.0
 11
420.004586076853
 21
34.45930967512911
 31
0.0
  0
LINE
  5
13E
330
1F
100
AcDbEntity
  8
VISIBLE
100
AcDbLine
 10
359.754586076853
 20
17.65930967512912
 30
0.0
 11
579.754586076853
 21
17.65930967512912
 31
0.0
  0
LINE
  5
13F
330
1F
100
AcDbEntity
  8
VISIBLE
100
AcDbLine
 10
579.754586076853
 20
17.65930967512912
 30
0.0
 11
579.754586076853
 21
172.4593096751291
 31
0.0
  0
LINE
  5
140
330
1F
100
AcDbEntity
  8
VISIBLE
100
AcDbLine
 10
396.004586076853
 20
84.4593096751291
 30
0.0
 11
396.004586076853
 21
34.45930967512911
 31
0.0
  0
LINE
  5
141
330
1F
100
AcDbEntity
  8
VISIBLE
100
AcDbLine
 10
444.004586076853
 20
163.4593096751291
 30
0.0
 11
444.004586076853
 21
151.4593096751291
 31
0.0
  0
LINE
  5
142
330
1F
100
AcDbEntity
  8
VISIBLE
100
AcDbLine
 10
516.004586076853
 20
46.45930967512911
 30
0.0
 11
516.004586076853
 21
34.45930967512911
 31
0.0
  0
LINE
  5
143
330
1F
100
AcDbEntity
  8
VISIBLE
100
AcDbLine
 10
444.004586076853
 20
46.45930967512911
 30
0.0
 11
444.004586076853
 21
34.45930967512911
 31
0.0
  0
LINE
  5
144
330
1F
100
AcDbEntity
  8
VISIBLE
100
AcDbLine
 10
480.004586076853
 20
46.45930967512911
 30
0.0
 11
480.004586076853
 21
34.45930967512911
 31
0.0
  0
LINE
  5
145
330
1F
100
AcDbEntity
  8
VISIBLE
100
AcDbLine
 10
531.504586076853
 20
163.4593096751291
 30
0.0
 11
531.504586076853
 21
151.4593096751291
 31
0.0
  0
LINE
  5
146
330
1F
100
AcDbEntity
  8
VISIBLE
100
AcDbLine
 10
507.504586076853
 20
46.45930967512911
 30
0.0
 11
507.504586076853
 21
34.45930967512911
 31
0.0
  0
LINE
  5
147
330
1F
100
AcDbEntity
  8
VISIBLE
100
AcDbLine
 10
504.004586076853
 20
46.45930967512911
 30
0.0
 11
504.004586076853
 21
34.45930967512911
 31
0.0
  0
LINE
  5
148
330
1F
100
AcDbEntity
  8
VISIBLE
100
AcDbLine
 10
459.504586076853
 20
163.4593096751291
 30
0.0
 11
459.504586076853
 21
151.4593096751291
 31
0.0
  0
LINE
  5
149
330
1F
100
AcDbEntity
  8
VISIBLE
100
AcDbLine
 10
471.504586076853
 20
163.4593096751291
 30
0.0
 11
471.504586076853
 21
151.4593096751291
 31
0.0
  0
LINE
  5
14A
330
1F
100
AcDbEntity
  8
VISIBLE
100
AcDbLine
 10
540.004586076853
 20
84.4593096751291
 30
0.0
 11
540.004586076853
 21
34.45930967512911
 31
0.0
  0
LINE
  5
14B
330
1F
100
AcDbEntity
  8
VISIBLE
100
AcDbLine
 10
552.004586076853
 20
163.4593096751291
 30
0.0
 11
552.004586076853
 21
151.4593096751291
 31
0.0
  0
LINE
  5
14C
330
1F
100
AcDbEntity
  8
VISIBLE
100
AcDbLine
 10
531.504586076853
 20
84.4593096751291
 30
0.0
 11
531.504586076853
 21
34.45930967512911
 31
0.0
  0
LINE
  5
14D
330
1F
100
AcDbEntity
  8
VISIBLE
100
AcDbLine
 10
414.423535084841
 20
162.923842437895
 30
0.0
 11
414.423535084841
 21
101.923842437895
 31
0.0
  0
LINE
  5
14E
330
1F
100
AcDbEntity
  8
VISIBLE
100
AcDbLine
 10
495.504586076853
 20
163.4593096751291
 30
0.0
 11
495.504586076853
 21
151.4593096751291
 31
0.0
  0
LINE
  5
14F
330
1F
100
AcDbEntity
  8
VISIBLE
100
AcDbLine
 10
483.504586076853
 20
163.4593096751291
 30
0.0
 11
483.504586076853
 21
151.4593096751291
 31
0.0
  0
LINE
  5
150
330
1F
100
AcDbEntity
  8
VISIBLE
100
AcDbLine
 10
555.504586076853
 20
163.4593096751291
 30
0.0
 11
555.504586076853
 21
151.4593096751291
 31
0.0
  0
LINE
  5
151
330
1F
100
AcDbEntity
  8
VISIBLE
100
AcDbLine
 10
528.004586076853
 20
84.4593096751291
 30
0.0
 11
528.004586076853
 21
34.45930967512911
 31
0.0
  0
LINE
  5
152
330
1F
100
AcDbEntity
  8
VISIBLE
100
AcDbLine
 10
411.504586076853
 20
84.4593096751291
 30
0.0
 11
411.504586076853
 21
34.45930967512911
 31
0.0
  0
LINE
  5
153
330
1F
100
AcDbEntity
  8
VISIBLE
100
AcDbLine
 10
507.504586076853
 20
163.4593096751291
 30
0.0
 11
507.504586076853
 21
151.4593096751291
 31
0.0
  0
LINE
  5
154
330
1F
100
AcDbEntity
  8
VISIBLE
100
AcDbLine
 10
519.504586076853
 20
163.4593096751291
 30
0.0
 11
519.504586076853
 21
151.4593096751291
 31
0.0
  0
LINE
  5
155
330
1F
100
AcDbEntity
  8
VISIBLE
100
AcDbLine
 10
543.504586076853
 20
163.4593096751291
 30
0.0
 11
543.504586076853
 21
151.4593096751291
 31
0.0
  0
LINE
  5
156
330
1F
100
AcDbEntity
  8
VISIBLE
100
AcDbLine
 10
432.004586076853
 20
163.4593096751291
 30
0.0
 11
432.004586076853
 21
151.4593096751291
 31
0.0
  0
LINE
  5
157
330
1F
100
AcDbEntity
  8
VISIBLE
100
AcDbLine
 10
408.004586076853
 20
84.4593096751291
 30
0.0
 11
408.004586076853
 21
34.45930967512911
 31
0.0
  0
LINE
  5
158
330
1F
100
AcDbEntity
  8
VISIBLE
100
AcDbLine
 10
387.504586076853
 20
84.4593096751291
 30
0.0
 11
387.504586076853
 21
34.45930967512911
 31
0.0
  0
LINE
  5
159
330
1F
100
AcDbEntity
  8
VISIBLE
100
AcDbLine
 10
528.004586076853
 20
163.4593096751291
 30
0.0
 11
528.004586076853
 21
151.4593096751291
 31
0.0
  0
LINE
  5
15A
330
1F
100
AcDbEntity
  8
VISIBLE
100
AcDbLine
 10
540.004586076853
 20
163.4593096751291
 30
0.0
 11
540.004586076853
 21
151.4593096751291
 31
0.0
  0
LINE
  5
15B
330
1F
100
AcDbEntity
  8
VISIBLE
100
AcDbLine
 10
516.004586076853
 20
163.4593096751291
 30
0.0
 11
516.004586076853
 21
151.4593096751291
 31
0.0
  0
LINE
  5
15C
330
1F
100
AcDbEntity
  8
VISIBLE
100
AcDbLine
 10
492.004586076853
 20
163.4593096751291
 30
0.0
 11
492.004586076853
 21
151.4593096751291
 31
0.0
  0
LINE
  5
15D
330
1F
100
AcDbEntity
  8
VISIBLE
100
AcDbLine
 10
492.004586076853
 20
46.45930967512911
 30
0.0
 11
492.004586076853
 21
34.45930967512911
 31
0.0
  0
LINE
  5
15E
330
1F
100
AcDbEntity
  8
VISIBLE
100
AcDbLine
 10
468.004586076853
 20
163.4593096751291
 30
0.0
 11
468.004586076853
 21
151.4593096751291
 31
0.0
  0
LINE
  5
15F
330
1F
100
AcDbEntity
  8
VISIBLE
100
AcDbLine
 10
456.004586076853
 20
163.4593096751291
 30
0.0
 11
456.004586076853
 21
151.4593096751291
 31
0.0
  0
ARC
  5
160
330
1F
100
AcDbEntity
  8
VISIBLE
100
AcDbCircle
 10
445.754586076853
 20
34.45930967512911
 30
0.0
 40
1.75
100
AcDbArc
 50
180.0
 51
0.0
  0
ARC
  5
161
330
1F
100
AcDbEntity
  8
VISIBLE
100
AcDbCircle
 10
409.754586076853
 20
34.45930967512911
 30
0.0
 40
1.75
100
AcDbArc
 50
180.0
 51
0.0
  0
ARC
  5
162
330
1F
100
AcDbEntity
  8
VISIBLE
100
AcDbCircle
 10
409.754586076853
 20
84.4593096751291
 30
0.0
 40
1.75
100
AcDbArc
 50
0.0
 51
180.0
  0
ARC
  5
163
330
1F
100
AcDbEntity
  8
VISIBLE
100
AcDbCircle
 10
397.754586076853
 20
84.4593096751291
 30
0.0
 40
1.75
100
AcDbArc
 50
0.0
 51
180.0
  0
ARC
  5
164
330
1F
100
AcDbEntity
  8
VISIBLE
100
AcDbCircle
 10
517.754586076853
 20
34.45930967512911
 30
0.0
 40
1.75
100
AcDbArc
 50
180.0
 51
0.0
  0
ARC
  5
165
330
1F
100
AcDbEntity
  8
VISIBLE
100
AcDbCircle
 10
517.754586076853
 20
46.45930967512911
 30
0.0
 40
1.75
100
AcDbArc
 50
0.0
 51
180.0
  0
ARC
  5
166
330
1F
100
AcDbEntity
  8
VISIBLE
100
AcDbCircle
 10
505.754586076853
 20
34.45930967512911
 30
0.0
 40
1.75
100
AcDbArc
 50
180.0
 51
0.0
  0
ARC
  5
167
330
1F
100
AcDbEntity
  8
VISIBLE
100
AcDbCircle
 10
505.754586076853
 20
46.45930967512911
 30
0.0
 40
1.75
100
AcDbArc
 50
0.0
 51
180.0
  0
ARC
  5
168
330
1F
100
AcDbEntity
  8
VISIBLE
100
AcDbCircle
 10
493.754586076853
 20
46.45930967512911
 30
0.0
 40
1.75
100
AcDbArc
 50
0.0
 51
180.0
  0
ARC
  5
169
330
1F
100
AcDbEntity
  8
VISIBLE
100
AcDbCircle
 10
481.754586076853
 20
34.45930967512911
 30
0.0
 40
1.75
100
AcDbArc
 50
180.0
 51
0.0
  0
ARC
  5
16A
330
1F
100
AcDbEntity
  8
VISIBLE
100
AcDbCircle
 10
433.754586076853
 20
46.45930967512911
 30
0.0
 40
1.75
100
AcDbArc
 50
0.0
 51
180.0
  0
ARC
  5
16B
330
1F
100
AcDbEntity
  8
VISIBLE
100
AcDbCircle
 10
397.754586076853
 20
34.45930967512911
 30
0.0
 40
1.75
100
AcDbArc
 50
180.0
 51
0.0
  0
ARC
  5
16C
330
1F
100
AcDbEntity
  8
VISIBLE
100
AcDbCircle
 10
505.754586076853
 20
163.4593096751291
 30
0.0
 40
1.75
100
AcDbArc
 50
0.0
 51
180.0
  0
ARC
  5
16D
330
1F
100
AcDbEntity
  8
VISIBLE
100
AcDbCircle
 10
505.754586076853
 20
151.4593096751291
 30
0.0
 40
1.75
100
AcDbArc
 50
180.0
 51
0.0
  0
ARC
  5
16E
330
1F
100
AcDbEntity
  8
VISIBLE
100
AcDbCircle
 10
529.754586076853
 20
163.4593096751291
 30
0.0
 40
1.75
100
AcDbArc
 50
0.0
 51
180.0
  0
ARC
  5
16F
330
1F
100
AcDbEntity
  8
VISIBLE
100
AcDbCircle
 10
493.754586076853
 20
34.45930967512911
 30
0.0
 40
1.75
100
AcDbArc
 50
180.0
 51
0.0
  0
ARC
  5
170
330
1F
100
AcDbEntity
  8
VISIBLE
100
AcDbCircle
 10
541.754586076853
 20
163.4593096751291
 30
0.0
 40
1.75
100
AcDbArc
 50
0.0
 51
180.0
  0
ARC
  5
171
330
1F
100
AcDbEntity
  8
VISIBLE
100
AcDbCircle
 10
457.754586076853
 20
151.4593096751291
 30
0.0
 40
1.75
100
AcDbArc
 50
180.0
 51
0.0
  0
ARC
  5
172
330
1F
100
AcDbEntity
  8
VISIBLE
100
AcDbCircle
 10
553.754586076853
 20
84.4593096751291
 30
0.0
 40
1.75
100
AcDbArc
 50
0.0
 51
180.0
  0
ARC
  5
173
330
1F
100
AcDbEntity
  8
VISIBLE
100
AcDbCircle
 10
469.754586076853
 20
151.4593096751291
 30
0.0
 40
1.75
100
AcDbArc
 50
180.0
 51
0.0
  0
ARC
  5
174
330
1F
100
AcDbEntity
  8
VISIBLE
100
AcDbCircle
 10
445.754586076853
 20
46.45930967512911
 30
0.0
 40
1.75
100
AcDbArc
 50
0.0
 51
180.0
  0
ARC
  5
175
330
1F
100
AcDbEntity
  8
VISIBLE
100
AcDbCircle
 10
517.754586076853
 20
151.4593096751291
 30
0.0
 40
1.75
100
AcDbArc
 50
180.0
 51
0.0
  0
ARC
  5
176
330
1F
100
AcDbEntity
  8
VISIBLE
100
AcDbCircle
 10
385.754586076853
 20
34.45930967512911
 30
0.0
 40
1.75
100
AcDbArc
 50
180.0
 51
0.0
  0
ARC
  5
177
330
1F
100
AcDbEntity
  8
VISIBLE
100
AcDbCircle
 10
529.754586076853
 20
84.4593096751291
 30
0.0
 40
1.75
100
AcDbArc
 50
0.0
 51
180.0
  0
ARC
  5
178
330
1F
100
AcDbEntity
  8
VISIBLE
100
AcDbCircle
 10
529.754586076853
 20
34.45930967512911
 30
0.0
 40
1.75
100
AcDbArc
 50
180.0
 51
0.0
  0
ARC
  5
179
330
1F
100
AcDbEntity
  8
VISIBLE
100
AcDbCircle
 10
541.754586076853
 20
151.4593096751291
 30
0.0
 40
1.75
100
AcDbArc
 50
180.0
 51
0.0
  0
ARC
  5
17A
330
1F
100
AcDbEntity
  8
VISIBLE
100
AcDbCircle
 10
541.754586076853
 20
84.4593096751291
 30
0.0
 40
1.75
100
AcDbArc
 50
0.0
 51
180.0
  0
ARC
  5
17B
330
1F
100
AcDbEntity
  8
VISIBLE
100
AcDbCircle
 10
385.754586076853
 20
84.4593096751291
 30
0.0
 40
1.75
100
AcDbArc
 50
0.0
 51
180.0
  0
ARC
  5
17C
330
1F
100
AcDbEntity
  8
VISIBLE
100
AcDbCircle
 10
457.754586076853
 20
163.4593096751291
 30
0.0
 40
1.75
100
AcDbArc
 50
0.0
 51
180.0
  0
ARC
  5
17D
330
1F
100
AcDbEntity
  8
VISIBLE
100
AcDbCircle
 10
433.754586076853
 20
163.4593096751291
 30
0.0
 40
1.75
100
AcDbArc
 50
0.0
 51
180.0
  0
ARC
  5
17E
330
1F
100
AcDbEntity
  8
VISIBLE
100
AcDbCircle
 10
517.754586076853
 20
163.4593096751291
 30
0.0
 40
1.75
100
AcDbArc
 50
0.0
 51
180.0
  0
ARC
  5
17F
330
1F
100
AcDbEntity
  8
VISIBLE
100
AcDbCircle
 10
553.754586076853
 20
34.45930967512911
 30
0.0
 40
1.75
100
AcDbArc
 50
180.0
 51
0.0
  0
ARC
  5
180
330
1F
100
AcDbEntity
  8
VISIBLE
100
AcDbCircle
 10
493.754586076853
 20
163.4593096751291
 30
0.0
 40
1.75
100
AcDbArc
 50
0.0
 51
180.0
  0
ARC
  5
181
330
1F
100
AcDbEntity
  8
VISIBLE
100
AcDbCircle
 10
553.754586076853
 20
163.4593096751291
 30
0.0
 40
1.75
100
AcDbArc
 50
0.0
 51
180.0
  0
ARC
  5
182
330
1F
100
AcDbEntity
  8
VISIBLE
100
AcDbCircle
 10
481.754586076853
 20
151.4593096751291
 30
0.0
 40
1.75
100
AcDbArc
 50
180.0
 51
0.0
  0
ARC
  5
183
330
1F
100
AcDbEntity
  8
VISIBLE
100
AcDbCircle
 10
493.754586076853
 20
151.4593096751291
 30
0.0
 40
1.75
100
AcDbArc
 50
180.0
 51
0.0
  0
ARC
  5
184
330
1F
100
AcDbEntity
  8
VISIBLE
100
AcDbCircle
 10
481.754586076853
 20
163.4593096751291
 30
0.0
 40
1.75
100
AcDbArc
 50
0.0
 51
180.0
  0
ARC
  5
185
330
1F
100
AcDbEntity
  8
VISIBLE
100
AcDbCircle
 10
469.754586076853
 20
163.4593096751291
 30
0.0
 40
1.75
100
AcDbArc
 50
0.0
 51
180.0
  0
ARC
  5
186
330
1F
100
AcDbEntity
  8
VISIBLE
100
AcDbCircle
 10
553.754586076853
 20
151.4593096751291
 30
0.0
 40
1.75
100
AcDbArc
 50
180.0
 51
0.0
  0
ARC
  5
187
330
1F
100
AcDbEntity
  8
VISIBLE
100
AcDbCircle
 10
421.754586076853
 20
34.45930967512911
 30
0.0
 40
1.75
100
AcDbArc
 50
180.0
 51
0.0
  0
ARC
  5
188
330
1F
100
AcDbEntity
  8
VISIBLE
100
AcDbCircle
 10
445.754586076853
 20
163.4593096751291
 30
0.0
 40
1.75
100
AcDbArc
 50
0.0
 51
180.0
  0
ARC
  5
189
330
1F
100
AcDbEntity
  8
VISIBLE
100
AcDbCircle
 10
541.754586076853
 20
34.45930967512911
 30
0.0
 40
1.75
100
AcDbArc
 50
180.0
 51
0.0
  0
ARC
  5
18A
330
1F
100
AcDbEntity
  8
VISIBLE
100
AcDbCircle
 10
433.754586076853
 20
151.4593096751291
 30
0.0
 40
1.75
100
AcDbArc
 50
180.0
 51
0.0
  0
ARC
  5
18B
330
1F
100
AcDbEntity
  8
VISIBLE
100
AcDbCircle
 10
529.754586076853
 20
151.4593096751291
 30
0.0
 40
1.75
100
AcDbArc
 50
180.0
 51
0.0
  0
ARC
  5
18C
330
1F
100
AcDbEntity
  8
VISIBLE
100
AcDbCircle
 10
421.754586076853
 20
46.45930967512911
 30
0.0
 40
1.75
100
AcDbArc
 50
0.0
 51
180.0
  0
ARC
  5
18D
330
1F
100
AcDbEntity
  8
VISIBLE
100
AcDbCircle
 10
445.754586076853
 20
151.4593096751291
 30
0.0
 40
1.75
100
AcDbArc
 50
180.0
 51
0.0
  0
ARC
  5
18E
330
1F
100
AcDbEntity
  8
VISIBLE
100
AcDbCircle
 10
469.754586076853
 20
46.45930967512911
 30
0.0
 40
1.75
100
AcDbArc
 50
0.0
 51
180.0
  0
ARC
  5
18F
330
1F
100
AcDbEntity
  8
VISIBLE
100
AcDbCircle
 10
457.754586076853
 20
46.45930967512911
 30
0.0
 40
1.75
100
AcDbArc
 50
0.0
 51
180.0
  0
ARC
  5
190
330
1F
100
AcDbEntity
  8
VISIBLE
100
AcDbCircle
 10
433.754586076853
 20
34.45930967512911
 30
0.0
 40
1.75
100
AcDbArc
 50
180.0
 51
0.0
  0
ARC
  5
191
330
1F
100
AcDbEntity
  8
VISIBLE
100
AcDbCircle
 10
469.754586076853
 20
34.45930967512911
 30
0.0
 40
1.75
100
AcDbArc
 50
180.0
 51
0.0
  0
ARC
  5
192
330
1F
100
AcDbEntity
  8
VISIBLE
100
AcDbCircle
 10
457.754586076853
 20
34.45930967512911
 30
0.0
 40
1.75
100
AcDbArc
 50
180.0
 51
0.0
  0
ARC
  5
193
330
1F
100
AcDbEntity
  8
VISIBLE
100
AcDbCircle
 10
481.754586076853
 20
46.45930967512911
 30
0.0
 40
1.75
100
AcDbArc
 50
0.0
 51
180.0
  0
LINE
  5
194
330
1F
100
AcDbEntity
  8
SHEETMETAL_BEND_LINES_UP
100
AcDbLine
 10
579.754586076853
 20
174.5602497622173
 30
0.0
 11
359.754586076853
 21
174.5602497622173
 31
0.0
  0
LINE
  5
19C
330
1F
100
AcDbEntity
  8
SHEETMETAL_BEND_LINES_DOWN
100
AcDbLine
 10
362.0879777891089
 20
415.5390361299579
 30
0.0
 11
362.0879777891089
 21
515.5390361299579
 31
0.0
  0
LINE
  5
19D
330
1F
100
AcDbEntity
  8
VISIBLE
100
AcDbLine
 10
506.8907980503734
 20
520.9586221330186
 30
0.0
 11
506.8907980503734
 21
561.7409163041343
 31
0.0
  0
LINE
  5
19E
330
1F
100
AcDbEntity
  8
VISIBLE
100
AcDbLine
 10
441.8907980503734
 20
561.7409163041343
 30
0.0
 11
406.8907980503734
 21
561.7409163041343
 31
0.0
  0
LINE
  5
19F
330
1F
100
AcDbEntity
  8
VISIBLE
100
AcDbLine
 10
444.8907980503734
 20
557.7409163041343
 30
0.0
 11
468.8907980503734
 21
557.7409163041343
 31
0.0
  0
LINE
  5
1A0
330
1F
100
AcDbEntity
  8
SHEETMETAL_BEND_TANGENT_LI
  6
ONS_PHANTOM
100
AcDbLine
 10
504.0612391394501
 20
518.7409163041343
 30
0.0
 11
409.7203569612967
 21
518.7409163041343
 31
0.0
  0
LINE
  5
1A1
330
1F
100
AcDbEntity
  8
VISIBLE
100
AcDbLine
 10
351.4870377020208
 20
420.5390361299579
 30
0.0
 11
356.4870377020208
 21
415.5390361299579
 31
0.0
  0
LINE
  5
1A2
330
1F
100
AcDbEntity
  8
VISIBLE
100
AcDbLine
 10
351.4870377020208
 20
426.389036129958
 30
0.0
 11
351.4870377020208
 21
420.5390361299579
 31
0.0
  0
LINE
  5
1A3
330
1F
100
AcDbEntity
  8
VISIBLE
100
AcDbLine
 10
356.4870377020208
 20
415.5390361299579
 30
0.0
 11
359.9870377020207
 21
415.5390361299579
 31
0.0
  0
LINE
  5
1A4
330
1F
100
AcDbEntity
  8
VISIBLE
100
AcDbLine
 10
359.9870377020207
 20
515.5390361299579
 30
0.0
 11
356.4870377020208
 21
515.5390361299579
 31
0.0
  0
LINE
  5
1A5
330
1F
100
AcDbEntity
  8
VISIBLE
100
AcDbLine
 10
356.4870377020208
 20
515.5390361299579
 30
0.0
 11
351.4870377020208
 21
510.5390361299579
 31
0.0
  0
LINE
  5
1A6
330
1F
100
AcDbEntity
  8
VISIBLE
100
AcDbLine
 10
351.4870377020208
 20
510.5390361299579
 30
0.0
 11
351.4870377020208
 21
504.6890361299579
 31
0.0
  0
LINE
  5
1A7
330
1F
100
AcDbEntity
  8
VISIBLE
100
AcDbLine
 10
357.4870377020207
 20
504.6890361299579
 30
0.0
 11
351.4870377020208
 21
504.6890361299579
 31
0.0
  0
LINE
  5
1A8
330
1F
100
AcDbEntity
  8
VISIBLE
100
AcDbLine
 10
357.4870377020207
 20
429.6890361299579
 30
0.0
 11
351.4870377020208
 21
429.6890361299579
 31
0.0
  0
LINE
  5
1A9
330
1F
100
AcDbEntity
  8
VISIBLE
100
AcDbLine
 10
357.4870377020207
 20
426.389036129958
 30
0.0
 11
351.4870377020208
 21
426.389036129958
 31
0.0
  0
LINE
  5
1AA
330
1F
100
AcDbEntity
  8
VISIBLE
100
AcDbLine
 10
406.8907980503734
 20
520.9586221330186
 30
0.0
 11
406.8907980503734
 21
561.7409163041343
 31
0.0
  0
LINE
  5
1AB
330
1F
100
AcDbEntity
  8
VISIBLE
100
AcDbLine
 10
359.9870377020207
 20
415.5390361299579
 30
0.0
 11
364.188917876197
 21
415.5390361299579
 31
0.0
  0
LINE
  5
1AC
330
1F
100
AcDbEntity
  8
VISIBLE
100
AcDbLine
 10
351.4870377020208
 20
501.3890361299579
 30
0.0
 11
351.4870377020208
 21
429.6890361299579
 31
0.0
  0
LINE
  5
1AD
330
1F
100
AcDbEntity
  8
SHEETMETAL_BEND_TANGENT_LI
  6
ONS_PHANTOM
100
AcDbLine
 10
549.5926782245497
 20
515.5390361299579
 30
0.0
 11
549.5926782245498
 21
415.5390361299579
 31
0.0
  0
LINE
  5
1AE
330
1F
100
AcDbEntity
  8
SHEETMETAL_BEND_TANGENT_LI
  6
ONS_PHANTOM
100
AcDbLine
 10
504.06123913945
 20
514.539036129958
 30
0.0
 11
409.7203569612967
 21
514.539036129958
 31
0.0
  0
LINE
  5
1AF
330
1F
100
AcDbEntity
  8
VISIBLE
100
AcDbLine
 10
556.2945583987262
 20
429.6890361299581
 30
0.0
 11
562.2945583987259
 21
429.6890361299581
 31
0.0
  0
LINE
  5
1B0
330
1F
100
AcDbEntity
  8
VISIBLE
100
AcDbLine
 10
441.8907980503734
 20
561.7409163041343
 30
0.0
 11
441.8907980503734
 21
560.7409163041343
 31
0.0
  0
LINE
  5
1B1
330
1F
100
AcDbEntity
  8
VISIBLE
100
AcDbLine
 10
562.2945583987259
 20
429.6890361299581
 30
0.0
 11
562.2945583987259
 21
501.3890361299579
 31
0.0
  0
LINE
  5
1B2
330
1F
100
AcDbEntity
  8
VISIBLE
100
AcDbLine
 10
562.2945583987259
 20
504.689036129958
 30
0.0
 11
562.2945583987259
 21
510.5390361299579
 31
0.0
  0
LINE
  5
1B3
330
1F
100
AcDbEntity
  8
VISIBLE
100
AcDbLine
 10
441.8907980503734
 20
369.3371559557818
 30
0.0
 11
441.8907980503734
 21
370.3371559557818
 31
0.0
  0
LINE
  5
1B4
330
1F
100
AcDbEntity
  8
VISIBLE
100
AcDbLine
 10
364.188917876197
 20
515.5390361299579
 30
0.0
 11
359.9870377020207
 21
515.5390361299579
 31
0.0
  0
LINE
  5
1B5
330
1F
100
AcDbEntity
  8
VISIBLE
100
AcDbLine
 10
553.7945583987262
 20
515.539036129958
 30
0.0
 11
549.5926782245497
 21
515.5390361299579
 31
0.0
  0
LINE
  5
1B6
330
1F
100
AcDbEntity
  8
VISIBLE
100
AcDbLine
 10
553.7945583987262
 20
415.5390361299582
 30
0.0
 11
557.294558398726
 21
415.5390361299582
 31
0.0
  0
LINE
  5
1B7
330
1F
100
AcDbEntity
  8
SHEETMETAL_BEND_TANGENT_LI
  6
ONS_PHANTOM
100
AcDbLine
 10
510.0926782245497
 20
512.7094772190346
 30
0.0
 11
510.0926782245498
 21
418.3685950408813
 31
0.0
  0
LINE
  5
1B8
330
1F
100
AcDbEntity
  8
VISIBLE
100
AcDbLine
 10
401.4712120473127
 20
515.539036129958
 30
0.0
 11
364.188917876197
 21
515.5390361299579
 31
0.0
  0
LINE
  5
1B9
330
1F
100
AcDbEntity
  8
VISIBLE
100
AcDbLine
 10
557.294558398726
 20
515.539036129958
 30
0.0
 11
553.7945583987262
 21
515.539036129958
 31
0.0
  0
LINE
  5
1BA
330
1F
100
AcDbEntity
  8
VISIBLE
100
AcDbLine
 10
357.4870377020207
 20
501.3890361299579
 30
0.0
 11
351.4870377020208
 21
501.3890361299579
 31
0.0
  0
LINE
  5
1BB
330
1F
100
AcDbEntity
  8
VISIBLE
100
AcDbLine
 10
512.3103840534341
 20
415.5390361299579
 30
0.0
 11
549.5926782245498
 21
415.5390361299579
 31
0.0
  0
LINE
  5
1BC
330
1F
100
AcDbEntity
  8
VISIBLE
100
AcDbLine
 10
506.8907980503734
 20
410.1194501268973
 30
0.0
 11
506.8907980503734
 21
369.3371559557818
 31
0.0
  0
LINE
  5
1BD
330
1F
100
AcDbEntity
  8
SHEETMETAL_BEND_TANGENT_LI
  6
ONS_PHANTOM
100
AcDbLine
 10
407.8907980503734
 20
512.7094772190346
 30
0.0
 11
407.8907980503734
 21
418.3685950408813
 31
0.0
  0
LINE
  5
1BE
330
1F
100
AcDbEntity
  8
VISIBLE
100
AcDbLine
 10
562.2945583987259
 20
510.5390361299579
 30
0.0
 11
557.294558398726
 21
515.539036129958
 31
0.0
  0
LINE
  5
1BF
330
1F
100
AcDbEntity
  8
VISIBLE
100
AcDbLine
 10
471.8907980503734
 20
561.7409163041343
 30
0.0
 11
471.8907980503734
 21
560.7409163041343
 31
0.0
  0
LINE
  5
1C0
330
1F
100
AcDbEntity
  8
VISIBLE
100
AcDbLine
 10
557.294558398726
 20
415.5390361299582
 30
0.0
 11
562.2945583987259
 21
420.5390361299581
 31
0.0
  0
LINE
  5
1C1
330
1F
100
AcDbEntity
  8
VISIBLE
100
AcDbLine
 10
549.5926782245498
 20
415.5390361299579
 30
0.0
 11
553.7945583987262
 21
415.5390361299582
 31
0.0
  0
LINE
  5
1C2
330
1F
100
AcDbEntity
  8
VISIBLE
100
AcDbLine
 10
556.2945583987262
 20
504.689036129958
 30
0.0
 11
562.2945583987259
 21
504.689036129958
 31
0.0
  0
LINE
  5
1C3
330
1F
100
AcDbEntity
  8
VISIBLE
100
AcDbLine
 10
556.2945583987262
 20
501.3890361299579
 30
0.0
 11
562.2945583987259
 21
501.3890361299579
 31
0.0
  0
LINE
  5
1C4
330
1F
100
AcDbEntity
  8
SHEETMETAL_BEND_TANGENT_LI
  6
ONS_PHANTOM
100
AcDbLine
 10
553.7945583987262
 20
515.539036129958
 30
0.0
 11
553.7945583987262
 21
415.5390361299582
 31
0.0
  0
LINE
  5
1C5
330
1F
100
AcDbEntity
  8
VISIBLE
100
AcDbLine
 10
506.8907980503734
 20
369.3371559557818
 30
0.0
 11
471.8907980503734
 21
369.3371559557818
 31
0.0
  0
LINE
  5
1C6
330
1F
100
AcDbEntity
  8
VISIBLE
100
AcDbLine
 10
506.8907980503734
 20
561.7409163041343
 30
0.0
 11
471.8907980503734
 21
561.7409163041343
 31
0.0
  0
LINE
  5
1C7
330
1F
100
AcDbEntity
  8
SHEETMETAL_BEND_TANGENT_LI
  6
ONS_PHANTOM
100
AcDbLine
 10
364.188917876197
 20
415.5390361299579
 30
0.0
 11
364.188917876197
 21
515.5390361299579
 31
0.0
  0
LINE
  5
1C8
330
1F
100
AcDbEntity
  8
VISIBLE
100
AcDbLine
 10
444.8907980503734
 20
373.3371559557818
 30
0.0
 11
468.8907980503734
 21
373.3371559557818
 31
0.0
  0
LINE
  5
1C9
330
1F
100
AcDbEntity
  8
VISIBLE
100
AcDbLine
 10
441.8907980503734
 20
369.3371559557818
 30
0.0
 11
406.8907980503734
 21
369.3371559557818
 31
0.0
  0
LINE
  5
1CA
330
1F
100
AcDbEntity
  8
VISIBLE
100
AcDbLine
 10
406.8907980503734
 20
410.1194501268973
 30
0.0
 11
406.8907980503734
 21
369.3371559557818
 31
0.0
  0
LINE
  5
1CB
330
1F
100
AcDbEntity
  8
SHEETMETAL_BEND_TANGENT_LI
  6
ONS_PHANTOM
100
AcDbLine
 10
504.0612391394501
 20
412.3371559557817
 30
0.0
 11
409.7203569612967
 21
412.3371559557817
 31
0.0
  0
LINE
  5
1CC
330
1F
100
AcDbEntity
  8
VISIBLE
100
AcDbLine
 10
512.3103840534341
 20
515.539036129958
 30
0.0
 11
549.5926782245497
 21
515.5390361299579
 31
0.0
  0
LINE
  5
1CD
330
1F
100
AcDbEntity
  8
SHEETMETAL_BEND_TANGENT_LI
  6
ONS_PHANTOM
100
AcDbLine
 10
504.0612391394501
 20
416.5390361299579
 30
0.0
 11
409.7203569612967
 21
416.5390361299581
 31
0.0
  0
LINE
  5
1CE
330
1F
100
AcDbEntity
  8
SHEETMETAL_BEND_TANGENT_LI
  6
ONS_PHANTOM
100
AcDbLine
 10
505.8907980503734
 20
512.7094772190346
 30
0.0
 11
505.8907980503734
 21
418.3685950408813
 31
0.0
  0
LINE
  5
1CF
330
1F
100
AcDbEntity
  8
VISIBLE
100
AcDbLine
 10
471.8907980503734
 20
369.3371559557818
 30
0.0
 11
471.8907980503734
 21
370.3371559557818
 31
0.0
  0
LINE
  5
1D0
330
1F
100
AcDbEntity
  8
SHEETMETAL_BEND_TANGENT_LI
  6
ONS_PHANTOM
100
AcDbLine
 10
403.688917876197
 20
512.7094772190346
 30
0.0
 11
403.688917876197
 21
418.3685950408813
 31
0.0
  0
LINE
  5
1D1
330
1F
100
AcDbEntity
  8
VISIBLE
100
AcDbLine
 10
556.2945583987262
 20
426.3890361299581
 30
0.0
 11
562.2945583987259
 21
426.3890361299581
 31
0.0
  0
LINE
  5
1D2
330
1F
100
AcDbEntity
  8
VISIBLE
100
AcDbLine
 10
562.2945583987259
 20
420.5390361299581
 30
0.0
 11
562.2945583987259
 21
426.3890361299581
 31
0.0
  0
LINE
  5
1D3
330
1F
100
AcDbEntity
  8
VISIBLE
100
AcDbLine
 10
401.4712120473128
 20
415.5390361299582
 30
0.0
 11
364.188917876197
 21
415.5390361299579
 31
0.0
  0
LINE
  5
1D4
330
1F
100
AcDbEntity
  8
SHEETMETAL_BEND_TANGENT_LI
  6
ONS_PHANTOM
100
AcDbLine
 10
359.9870377020207
 20
415.5390361299579
 30
0.0
 11
359.9870377020207
 21
515.5390361299579
 31
0.0
  0
ARC
  5
1D5
330
1F
100
AcDbEntity
  8
VISIBLE
100
AcDbCircle
 10
444.8907980503734
 20
560.7409163041343
 30
0.0
 40
3.0
100
AcDbArc
 50
180.0
 51
270.0
  0
ARC
  5
1D6
330
1F
100
AcDbEntity
  8
VISIBLE
100
AcDbCircle
 10
507.9917381374616
 20
516.6399762170461
 30
0.0
 40
4.45676694734011
100
AcDbArc
 50
151.8744942979433
 51
208.1255057020535
  0
ARC
  5
1D7
330
1F
100
AcDbEntity
  8
VISIBLE
100
AcDbCircle
 10
405.7898579632852
 20
516.6399762170461
 30
0.0
 40
4.45676694734011
100
AcDbArc
 50
331.8744942979465
 51
28.12550570205674
  0
ARC
  5
1D8
330
1F
100
AcDbEntity
  8
VISIBLE
100
AcDbCircle
 10
405.7898579632852
 20
414.4380960428699
 30
0.0000000000000002
 40
4.45676694734011
100
AcDbArc
 50
61.87449429794391
 51
118.1255057020567
  0
ARC
  5
1D9
330
1F
100
AcDbEntity
  8
VISIBLE
100
AcDbCircle
 10
405.7898579632852
 20
516.6399762170461
 30
-0.0000000000000002
 40
4.45676694734011
100
AcDbArc
 50
241.8744942979439
 51
298.1255057020561
  0
ARC
  5
1DA
330
1F
100
AcDbEntity
  8
VISIBLE
100
AcDbCircle
 10
556.2945583987262
 20
428.0390361299581
 30
0.0
 40
1.65
100
AcDbArc
 50
90.0
 51
270.0
  0
ARC
  5
1DB
330
1F
100
AcDbEntity
  8
VISIBLE
100
AcDbCircle
 10
507.9917381374616
 20
414.4380960428697
 30
0.0000000000000002
 40
4.45676694734011
100
AcDbArc
 50
118.1255057020551
 51
151.8744942979433
  0
ARC
  5
1DC
330
1F
100
AcDbEntity
  8
VISIBLE
100
AcDbCircle
 10
405.7898579632852
 20
414.4380960428699
 30
0.0
 40
4.45676694734011
100
AcDbArc
 50
331.8744942979439
 51
28.1255057020551
  0
ARC
  5
1DD
330
1F
100
AcDbEntity
  8
VISIBLE
100
AcDbCircle
 10
357.4870377020207
 20
503.0390361299579
 30
0.0
 40
1.65
100
AcDbArc
 50
270.0
 51
90.0
  0
ARC
  5
1DE
330
1F
100
AcDbEntity
  8
VISIBLE
100
AcDbCircle
 10
444.8907980503734
 20
370.3371559557818
 30
0.0
 40
3.0
100
AcDbArc
 50
90.0
 51
180.0
  0
ARC
  5
1DF
330
1F
100
AcDbEntity
  8
VISIBLE
100
AcDbCircle
 10
357.4870377020207
 20
428.0390361299579
 30
0.0
 40
1.65
100
AcDbArc
 50
270.0
 51
90.0
  0
ARC
  5
1E0
330
1F
100
AcDbEntity
  8
VISIBLE
100
AcDbCircle
 10
507.9917381374616
 20
516.6399762170461
 30
0.0
 40
4.45676694734011
100
AcDbArc
 50
298.1255057020554
 51
345.6983674775275
  0
LINE
  5
1E1
330
1F
100
AcDbEntity
  8
SHEETMETAL_BEND_LINES_UP
100
AcDbLine
 10
410.2466249106253
 20
516.6399762170461
 30
0.0
 11
503.5349711901215
 21
516.6399762170461
 31
0.0
  0
LINE
  5
1E2
330
1F
100
AcDbEntity
  8
SHEETMETAL_BEND_LINES_DOWN
100
AcDbLine
 10
551.6936183116379
 20
415.5390361299579
 30
0.0
 11
551.6936183116379
 21
515.5390361299579
 31
0.0
  0
LINE
  5
1E3
330
1F
100
AcDbEntity
  8
SHEETMETAL_BEND_LINES_UP
100
AcDbLine
 10
405.7898579632852
 20
418.89486299021
 30
0.0
 11
405.7898579632852
 21
512.183209269706
 31
0.0
  0
LINE
  5
1E4
330
1F
100
AcDbEntity
  8
SHEETMETAL_BEND_LINES_UP
100
AcDbLine
 10
507.9917381374616
 20
418.89486299021
 30
0.0
 11
507.9917381374616
 21
512.1832092697059
 31
0.0
  0
LINE
  5
1E5
330
1F
100
AcDbEntity
  8
SHEETMETAL_BEND_LINES_UP
100
AcDbLine
 10
410.2466249106254
 20
414.4380960428699
 30
0.0
 11
503.5349711901215
 21
414.4380960428699
 31
0.0
  0
ARC
  5
1E6
330
1F
100
AcDbEntity
  8
VISIBLE
100
AcDbCircle
 10
405.7898579632852
 20
516.6399762170461
 30
0.0
 40
4.45676694734011
100
AcDbArc
 50
28.12550570205674
 51
75.69836747752517
  0
ARC
  5
1E7
330
1F
100
AcDbEntity
  8
VISIBLE
100
AcDbCircle
 10
468.8907980503734
 20
370.3371559557818
 30
0.0
 40
3.0
100
AcDbArc
 50
0.0
 51
90.0
  0
ARC
  5
1E8
330
1F
100
AcDbEntity
  8
VISIBLE
100
AcDbCircle
 10
556.2945583987262
 20
503.0390361299579
 30
0.0
 40
1.65
100
AcDbArc
 50
90.0
 51
270.0
  0
ARC
  5
1E9
330
1F
100
AcDbEntity
  8
VISIBLE
100
AcDbCircle
 10
507.9917381374616
 20
516.6399762170461
 30
-0.0000000000000002
 40
4.45676694734011
100
AcDbArc
 50
241.8744942979439
 51
298.1255057020547
  0
ARC
  5
1EA
330
1F
100
AcDbEntity
  8
VISIBLE
100
AcDbCircle
 10
507.9917381374616
 20
414.4380960428697
 30
0.0000000000000002
 40
4.45676694734011
100
AcDbArc
 50
61.8744942979449
 51
118.1255057020551
  0
ARC
  5
1EB
330
1F
100
AcDbEntity
  8
VISIBLE
100
AcDbCircle
 10
507.9917381374616
 20
516.6399762170461
 30
0.0
 40
4.45676694734011
100
AcDbArc
 50
104.3016325224748
 51
151.8744942979433
  0
ARC
  5
1EC
330
1F
100
AcDbEntity
  8
VISIBLE
100
AcDbCircle
 10
507.9917381374616
 20
414.4380960428697
 30
0.0
 40
4.45676694734011
100
AcDbArc
 50
151.8744942979433
 51
208.1255057020535
  0
ARC
  5
1ED
330
1F
100
AcDbEntity
  8
VISIBLE
100
AcDbCircle
 10
405.7898579632852
 20
414.4380960428699
 30
0.0
 40
4.45676694734011
100
AcDbArc
 50
118.1255057020567
 51
165.6983674775246
  0
ARC
  5
1EE
330
1F
100
AcDbEntity
  8
VISIBLE
100
AcDbCircle
 10
507.9917381374616
 20
414.4380960428699
 30
0.0
 40
4.45676694734011
100
AcDbArc
 50
208.1255057020561
 51
255.698367477526
  0
ARC
  5
1EF
330
1F
100
AcDbEntity
  8
VISIBLE
100
AcDbCircle
 10
405.7898579632852
 20
516.6399762170461
 30
-0.0000000000000004
 40
4.45676694734011
100
AcDbArc
 50
194.3016325224725
 51
241.8744942979439
  0
ARC
  5
1F0
330
1F
100
AcDbEntity
  8
VISIBLE
100
AcDbCircle
 10
468.8907980503734
 20
560.7409163041343
 30
0.0
 40
3.0
100
AcDbArc
 50
270.0
 51
0.0
  0
ARC
  5
1F1
330
1F
100
AcDbEntity
  8
VISIBLE
100
AcDbCircle
 10
507.9917381374616
 20
414.4380960428697
 30
0.0
 40
4.45676694734011
100
AcDbArc
 50
14.30163252247537
 51
61.8744942979449
  0
ARC
  5
1F2
330
1F
100
AcDbEntity
  8
VISIBLE
100
AcDbCircle
 10
405.7898579632852
 20
516.6399762170461
 30
-0.0000000000000002
 40
4.45676694734011
100
AcDbArc
 50
298.1255057020561
 51
331.8744942979465
  0
ARC
  5
1F3
330
1F
100
AcDbEntity
  8
VISIBLE
100
AcDbCircle
 10
507.9917381374616
 20
516.6399762170461
 30
-0.0000000000000002
 40
4.45676694734011
100
AcDbArc
 50
208.1255057020535
 51
241.8744942979439
  0
ARC
  5
1F4
330
1F
100
AcDbEntity
  8
VISIBLE
100
AcDbCircle
 10
405.7898579632852
 20
414.4380960428699
 30
0.0
 40
4.45676694734011
100
AcDbArc
 50
284.3016325224739
 51
331.8744942979449
  0
ARC
  5
1F5
330
1F
100
AcDbEntity
  8
VISIBLE
100
AcDbCircle
 10
405.7898579632852
 20
414.4380960428699
 30
0.0000000000000002
 40
4.45676694734011
100
AcDbArc
 50
28.1255057020551
 51
61.87449429794391
  0
CIRCLE
  5
1FC
330
1F
100
AcDbEntity
  8
VISIBLE
100
AcDbCircle
 10
35.0565530534096
 20
444.7623811747084
 30
0.0
 40
1.6
  0
CIRCLE
  5
1FD
330
1F
100
AcDbEntity
  8
VISIBLE
100
AcDbCircle
 10
35.0565530534096
 20
504.7623811747084
 30
0.0
 40
1.6
  0
CIRCLE
  5
1FE
330
1F
100
AcDbEntity
  8
VISIBLE
100
AcDbCircle
 10
250.258433227586
 20
423.7623811747084
 30
0.0
 40
1.6
  0
CIRCLE
  5
1FF
330
1F
100
AcDbEntity
  8
VISIBLE
100
AcDbCircle
 10
250.258433227586
 20
491.7623811747084
 30
0.0
 40
1.6
  0
CIRCLE
  5
200
330
1F
100
AcDbEntity
  8
VISIBLE
100
AcDbCircle
 10
107.258433227586
 20
491.7623811747084
 30
0.0
 40
1.6
  0
CIRCLE
  5
201
330
1F
100
AcDbEntity
  8
VISIBLE
100
AcDbCircle
 10
107.258433227586
 20
423.7623811747084
 30
0.0
 40
1.6
  0
CIRCLE
  5
202
330
1F
100
AcDbEntity
  8
VISIBLE
100
AcDbCircle
 10
322.4603134017624
 20
444.7623811747084
 30
0.0
 40
1.6
  0
CIRCLE
  5
203
330
1F
100
AcDbEntity
  8
VISIBLE
100
AcDbCircle
 10
322.4603134017624
 20
504.7623811747084
 30
0.0
 40
1.6
  0
LINE
  5
204
330
1F
100
AcDbEntity
  8
VISIBLE
100
AcDbLine
 10
258.4603134017624
 20
419.7623811747084
 30
0.0
 11
254.258433227586
 21
419.7623811747084
 31
0.0
  0
LINE
  5
205
330
1F
100
AcDbEntity
  8
VISIBLE
100
AcDbLine
 10
254.258433227586
 20
509.7623811747084
 30
0.0
 11
258.4603134017624
 21
509.7623811747084
 31
0.0
  0
LINE
  5
206
330
1F
100
AcDbEntity
  8
VISIBLE
100
AcDbLine
 10
269.4603134017624
 20
427.7623811747084
 30
0.0
 11
265.4603134017624
 21
427.7623811747084
 31
0.0
  0
LINE
  5
207
330
1F
100
AcDbEntity
  8
VISIBLE
100
AcDbLine
 10
272.4603134017624
 20
430.7623811747084
 30
0.0
 11
272.4603134017624
 21
459.7623811747084
 31
0.0
  0
LINE
  5
208
330
1F
100
AcDbEntity
  8
VISIBLE
100
AcDbLine
 10
325.1443536884136
 20
441.1216250655281
 30
0.0
 11
266.4603134017623
 21
419.7623811747084
 31
0.0
  0
LINE
  5
209
330
1F
100
AcDbEntity
  8
VISIBLE
100
AcDbLine
 10
269.4603134017624
 20
462.7623811747084
 30
0.0
 11
265.4603134017624
 21
462.7623811747084
 31
0.0
  0
LINE
  5
20A
330
1F
100
AcDbEntity
  8
VISIBLE
100
AcDbLine
 10
95.05655305340962
 20
430.7623811747084
 30
0.0
 11
95.05655305340962
 21
459.7623811747084
 31
0.0
  0
LINE
  5
20B
330
1F
100
AcDbEntity
  8
VISIBLE
100
AcDbLine
 10
31.05655305340963
 20
507.7623811747084
 30
0.0
 11
31.05655305340963
 21
443.0010103070999
 31
0.0
  0
LINE
  5
20C
330
1F
100
AcDbEntity
  8
VISIBLE
100
AcDbLine
 10
324.4603134017624
 20
509.7623811747084
 30
0.0
 11
258.4603134017624
 21
509.7623811747084
 31
0.0
  0
LINE
  5
20D
330
1F
100
AcDbEntity
  8
VISIBLE
100
AcDbLine
 10
32.3725127667584
 20
441.1216250655281
 30
0.0
 11
91.0565530534097
 21
419.7623811747084
 31
0.0
  0
LINE
  5
20E
330
1F
100
AcDbEntity
  8
VISIBLE
100
AcDbLine
 10
91.0565530534097
 20
419.7623811747084
 30
0.0
 11
99.05655305340962
 21
419.7623811747084
 31
0.0
  0
LINE
  5
20F
330
1F
100
AcDbEntity
  8
VISIBLE
100
AcDbLine
 10
33.05655305340963
 20
509.7623811747084
 30
0.0
 11
99.05655305340962
 21
509.7623811747084
 31
0.0
  0
LINE
  5
210
330
1F
100
AcDbEntity
  8
VISIBLE
100
AcDbLine
 10
262.4603134017624
 20
430.7623811747084
 30
0.0
 11
262.4603134017624
 21
459.7623811747084
 31
0.0
  0
LINE
  5
211
330
1F
100
AcDbEntity
  8
VISIBLE
100
AcDbLine
 10
254.258433227586
 20
509.7623811747084
 30
0.0
 11
103.258433227586
 21
509.7623811747084
 31
0.0
  0
LINE
  5
212
330
1F
100
AcDbEntity
  8
SHEETMETAL_BEND_TANGENT_LI
  6
ONS_PHANTOM
100
AcDbLine
 10
99.05655305340962
 20
509.7623811747084
 30
0.0
 11
99.05655305340962
 21
419.7623811747084
 31
0.0
  0
LINE
  5
213
330
1F
100
AcDbEntity
  8
VISIBLE
100
AcDbLine
 10
88.0565530534096
 20
462.7623811747084
 30
0.0
 11
92.0565530534096
 21
462.7623811747084
 31
0.0
  0
LINE
  5
214
330
1F
100
AcDbEntity
  8
VISIBLE
100
AcDbLine
 10
85.05655305340962
 20
430.7623811747084
 30
0.0
 11
85.05655305340962
 21
459.7623811747084
 31
0.0
  0
LINE
  5
215
330
1F
100
AcDbEntity
  8
SHEETMETAL_BEND_TANGENT_LI
  6
ONS_PHANTOM
100
AcDbLine
 10
258.4603134017624
 20
509.7623811747084
 30
0.0
 11
258.4603134017624
 21
419.7623811747084
 31
0.0
  0
LINE
  5
216
330
1F
100
AcDbEntity
  8
VISIBLE
100
AcDbLine
 10
103.258433227586
 20
419.7623811747084
 30
0.0
 11
99.05655305340962
 21
419.7623811747084
 31
0.0
  0
LINE
  5
217
330
1F
100
AcDbEntity
  8
SHEETMETAL_BEND_TANGENT_LI
  6
ONS_PHANTOM
100
AcDbLine
 10
103.258433227586
 20
509.7623811747084
 30
0.0
 11
103.258433227586
 21
419.7623811747084
 31
0.0
  0
LINE
  5
218
330
1F
100
AcDbEntity
  8
VISIBLE
100
AcDbLine
 10
99.05655305340962
 20
509.7623811747084
 30
0.0
 11
103.258433227586
 21
509.7623811747084
 31
0.0
  0
LINE
  5
219
330
1F
100
AcDbEntity
  8
VISIBLE
100
AcDbLine
 10
88.0565530534096
 20
427.7623811747084
 30
0.0
 11
92.0565530534096
 21
427.7623811747084
 31
0.0
  0
LINE
  5
21A
330
1F
100
AcDbEntity
  8
SHEETMETAL_BEND_TANGENT_LI
  6
ONS_PHANTOM
100
AcDbLine
 10
254.258433227586
 20
509.7623811747084
 30
0.0
 11
254.258433227586
 21
419.7623811747084
 31
0.0
  0
LINE
  5
21B
330
1F
100
AcDbEntity
  8
VISIBLE
100
AcDbLine
 10
326.4603134017624
 20
507.7623811747084
 30
0.0
 11
326.4603134017624
 21
443.0010103070999
 31
0.0
  0
LINE
  5
21C
330
1F
100
AcDbEntity
  8
VISIBLE
100
AcDbLine
 10
254.258433227586
 20
419.7623811747084
 30
0.0
 11
103.258433227586
 21
419.7623811747084
 31
0.0
  0
LINE
  5
21D
330
1F
100
AcDbEntity
  8
VISIBLE
100
AcDbLine
 10
266.4603134017623
 20
419.7623811747084
 30
0.0
 11
258.4603134017624
 21
419.7623811747084
 31
0.0
  0
ARC
  5
21E
330
1F
100
AcDbEntity
  8
VISIBLE
100
AcDbCircle
 10
265.4603134017624
 20
430.7623811747084
 30
0.0
 40
3.0
100
AcDbArc
 50
180.0
 51
270.0
  0
ARC
  5
21F
330
1F
100
AcDbEntity
  8
VISIBLE
100
AcDbCircle
 10
269.4603134017624
 20
430.7623811747084
 30
0.0
 40
3.0
100
AcDbArc
 50
270.0
 51
0.0
  0
ARC
  5
220
330
1F
100
AcDbEntity
  8
VISIBLE
100
AcDbCircle
 10
269.4603134017624
 20
459.7623811747084
 30
0.0
 40
3.0
100
AcDbArc
 50
0.0
 51
90.0
  0
ARC
  5
221
330
1F
100
AcDbEntity
  8
VISIBLE
100
AcDbCircle
 10
324.4603134017624
 20
443.0010103070999
 30
-0.0000000000000001
 40
2.0
100
AcDbArc
 50
289.9999999999965
 51
0.000000000000014
  0
ARC
  5
222
330
1F
100
AcDbEntity
  8
VISIBLE
100
AcDbCircle
 10
324.4603134017624
 20
507.7623811747084
 30
-0.0000000000000001
 40
2.0
100
AcDbArc
 50
0.000000000000014
 51
90.0
  0
ARC
  5
223
330
1F
100
AcDbEntity
  8
VISIBLE
100
AcDbCircle
 10
33.05655305340963
 20
443.0010103070999
 30
-0.0000000000000001
 40
2.0
100
AcDbArc
 50
180.0
 51
250.0000000000031
  0
ARC
  5
224
330
1F
100
AcDbEntity
  8
VISIBLE
100
AcDbCircle
 10
33.05655305340963
 20
507.7623811747084
 30
-0.0000000000000001
 40
2.0
100
AcDbArc
 50
90.0
 51
180.0
  0
ARC
  5
225
330
1F
100
AcDbEntity
  8
VISIBLE
100
AcDbCircle
 10
92.0565530534096
 20
430.7623811747084
 30
0.0
 40
3.0
100
AcDbArc
 50
270.0
 51
0.0
  0
LINE
  5
226
330
1F
100
AcDbEntity
  8
SHEETMETAL_BEND_LINES_UP
100
AcDbLine
 10
101.1574931404978
 20
509.7623811747084
 30
0.0
 11
101.1574931404978
 21
419.7623811747084
 31
0.0
  0
LINE
  5
227
330
1F
100
AcDbEntity
  8
SHEETMETAL_BEND_LINES_UP
100
AcDbLine
 10
256.3593733146742
 20
509.7623811747084
 30
0.0
 11
256.3593733146742
 21
419.7623811747084
 31
0.0
  0
ARC
  5
228
330
1F
100
AcDbEntity
  8
VISIBLE
100
AcDbCircle
 10
265.4603134017624
 20
459.7623811747084
 30
0.0
 40
3.0
100
AcDbArc
 50
90.0
 51
180.0
  0
ARC
  5
229
330
1F
100
AcDbEntity
  8
VISIBLE
100
AcDbCircle
 10
92.0565530534096
 20
459.7623811747084
 30
0.0
 40
3.0
100
AcDbArc
 50
0.0
 51
90.0
  0
ARC
  5
22A
330
1F
100
AcDbEntity
  8
VISIBLE
100
AcDbCircle
 10
88.0565530534096
 20
459.7623811747084
 30
0.0
 40
3.0
100
AcDbArc
 50
90.0
 51
180.0
  0
ARC
  5
22B
330
1F
100
AcDbEntity
  8
VISIBLE
100
AcDbCircle
 10
88.0565530534096
 20
430.7623811747084
 30
0.0
 40
3.0
100
AcDbArc
 50
180.0
 51
270.0
  0
ENDSEC
  0
SECTION
  2
OBJECTS
  0
DICTIONARY
  5
C
330
0
100
AcDbDictionary
  3
ACAD_GROUP
350
D
  3
ACAD_LAYOUT
350
1A
  3
ACAD_MATERIAL
350
43
  3
ACAD_MLEADERSTYLE
350
6B
  3
ACAD_MLINESTYLE
350
17
  3
ACAD_PLOTSETTINGS
350
19
  3
ACAD_SCALELIST
350
47
  3
ACAD_VISUALSTYLE
350
2A
  3
ACDBHEADERROUNDTRIPXREC
350
273
  3
ACDBVARIABLEDICTIONARY
350
6E
  3
ONSHAPE_DATA
350
22C
  0
DICTIONARY
  5
29E
330
8
100
AcDbDictionary
280
     1
  3
ACAD_XREC_ROUNDTRIP
360
29F
  0
DICTIONARY
  5
75
330
74
100
AcDbDictionary
280
     1
  3
ONSHAPE_VIEW_ID
360
76
  0
DICTIONARY
  5
7B
330
7A
100
AcDbDictionary
280
     1
  3
ONSHAPE_VIEW_ID
360
7C
  0
DICTIONARY
  5
7E
330
7D
100
AcDbDictionary
280
     1
  3
ONSHAPE_VIEW_ID
360
7F
  0
DICTIONARY
  5
81
330
80
100
AcDbDictionary
280
     1
  3
ONSHAPE_VIEW_ID
360
82
  0
DICTIONARY
  5
84
330
83
100
AcDbDictionary
280
     1
  3
ONSHAPE_VIEW_ID
360
85
  0
DICTIONARY
  5
87
330
86
100
AcDbDictionary
280
     1
  3
ONSHAPE_VIEW_ID
360
88
  0
DICTIONARY
  5
D
102
{ACAD_REACTORS
330
C
102
}
330
C
100
AcDbDictionary
  0
DICTIONARY
  5
1A
102
{ACAD_REACTORS
330
C
102
}
330
C
100
AcDbDictionary
  0
DICTIONARY
  5
43
102
{ACAD_REACTORS
330
C
102
}
330
C
100
AcDbDictionary
  3
BYBLOCK
350
45
  3
BYLAYER
350
44
  3
GLOBAL
350
46
  0
DICTIONARY
  5
6B
102
{ACAD_REACTORS
330
C
102
}
330
C
100
AcDbDictionary
  3
STANDARD
350
6C
  0
DICTIONARY
  5
17
102
{ACAD_REACTORS
330
C
102
}
330
C
100
AcDbDictionary
  3
STANDARD
350
18
  0
DICTIONARY
  5
19
102
{ACAD_REACTORS
330
C
102
}
330
C
100
AcDbDictionary
  0
DICTIONARY
  5
47
102
{ACAD_REACTORS
330
C
102
}
330
C
100
AcDbDictionary
  3
A0
350
48
  3
A1
350
49
  3
A2
350
4A
  3
A3
350
4B
  3
A4
350
4C
  3
A5
350
4D
  3
A6
350
4E
  3
A7
350
4F
  3
A8
350
50
  3
A9
350
51
  3
B0
350
52
  3
B1
350
53
  3
B2
350
54
  3
B3
350
55
  3
B4
350
56
  3
B5
350
57
  3
B6
350
58
  3
B7
350
59
  3
B8
350
5A
  3
B9
350
5B
  3
C0
350
5C
  3
C1
350
5D
  3
C2
350
5E
  3
C3
350
5F
  3
C4
350
60
  3
C5
350
61
  3
C6
350
62
  3
C7
350
63
  3
C8
350
64
  3
C9
350
65
  3
D0
350
66
  3
D1
350
67
  3
D2
350
68
  0
DICTIONARY
  5
2A
102
{ACAD_REACTORS
330
C
102
}
330
C
100
AcDbDictionary
  3
2DWIREFRAME
350
2F
  3
BASIC
350
32
  3
BRIGHTEN
350
36
  3
COLORCHANGE
350
3A
  3
CONCEPTUAL
350
34
  3
DIM
350
35
  3
EDGECOLOROFF
350
3D
  3
FACEPATTERN
350
39
  3
FLAT
350
2B
  3
FLATWITHEDGES
350
2C
  3
GOURAUD
350
2D
  3
GOURAUDWITHEDGES
350
2E
  3
HIDDEN
350
31
  3
JITTEROFF
350
3B
  3
LINEPATTERN
350
38
  3
OVERHANGOFF
350
3C
  3
REALISTIC
350
33
  3
SHADED
350
42
  3
SHADED_WITH_EDGES
350
41
  3
SHADES_OF_GRAY
350
3E
  3
SKETCHY
350
3F
  3
THICKEN
350
37
  3
WIREFRAME
350
30
  3
X-RAY
350
40
  0
DICTIONARY
  5
273
102
{ACAD_REACTORS
330
C
102
}
330
C
100
AcDbDictionary
  3
CEPSNID
350
27D
  3
CEPSNTYPE
350
27C
  3
DIMSTYLEDATA
350
293
  3
FINGERPRINTGUID
350
27E
  3
HYPERLINKBASE
350
276
  3
INSUNITS
350
27B
  3
LAYOUTDICT
350
278
  3
LWETCUNION
350
27A
  3
PLOTSETDICT
350
279
  3
PSVPSCALE
350
280
  3
PUCSBASE
350
283
  3
PUCSORGBACK
350
289
  3
PUCSORGBOTTOM
350
285
  3
PUCSORGFRONT
350
288
  3
PUCSORGLEFT
350
286
  3
PUCSORGRIGHT
350
287
  3
PUCSORGTOP
350
284
  3
PUCSORTHOREF
350
281
  3
PUCSORTHOVIEW
350
282
  3
STYLESHEET
350
277
  3
TSTACKALIGN
350
274
  3
TSTACKSIZE
350
275
  3
UCSBASE
350
28C
  3
UCSORGBACK
350
292
  3
UCSORGBOTTOM
350
28E
  3
UCSORGFRONT
350
291
  3
UCSORGLEFT
350
28F
  3
UCSORGRIGHT
350
290
  3
UCSORGTOP
350
28D
  3
UCSORTHOREF
350
28A
  3
UCSORTHOVIEW
350
28B
  3
VERSIONGUID
350
27F
  0
DICTIONARY
  5
6E
102
{ACAD_REACTORS
330
C
102
}
330
C
100
AcDbDictionary
  3
CANNOSCALE
350
2A0
  3
CENTEREXE
350
29A
  3
CENTERLTYPEFILE
350
29B
  3
CMLEADERSTYLE
350
295
  3
CTABLESTYLE
350
294
  3
DIMASSOC
350
29C
  3
HIDETEXT
350
29D
  3
MSLTSCALE
350
2A1
  3
OLEFRAME
350
6F
  3
PSOLHEIGHT
350
297
  3
PSOLWIDTH
350
296
  0
DICTIONARY
  5
22C
102
{ACAD_REACTORS
330
C
102
}
330
C
100
AcDbDictionary
280
     1
  3
DIM_UNITS
360
22D
  3
ONSHAPE_ANG_TOL_PRECISION
360
230
  3
ONSHAPE_VSHARP_EXTENSION
360
22F
  3
ONSHAPE_WELD_STANDARD
360
22E
  0
XRECORD
  5
29F
102
{ACAD_REACTORS
330
29E
102
}
330
29E
100
AcDbXrecord
102
VTR_0.000_0.000_1.000_1.000_VISUALSTYLE
340
2F
102
VTR_0.000_0.000_1.000_1.000_GRIDDISPLAY
 70
     3
102
VTR_0.000_0.000_1.000_1.000_GRIDMAJOR
 70
     5
102
VTR_0.000_0.000_1.000_1.000_DEFAULTLIGHTING
280
     1
102
VTR_0.000_0.000_1.000_1.000_DEFAULTLIGHTINGTYPE
 70
     1
102
VTR_0.000_0.000_1.000_1.000_BRIGHTNESS
141
0.0
102
VTR_0.000_0.000_1.000_1.000_CONTRAST
142
0.0
  0
XRECORD
  5
76
102
{ACAD_REACTORS
330
75
102
}
330
75
100
AcDbXrecord
330
0
  0
XRECORD
  5
7C
102
{ACAD_REACTORS
330
7B
102
}
330
7B
100
AcDbXrecord
330
0
  0
XRECORD
  5
7F
102
{ACAD_REACTORS
330
7E
102
}
330
7E
100
AcDbXrecord
330
0
  0
XRECORD
  5
82
102
{ACAD_REACTORS
330
81
102
}
330
81
100
AcDbXrecord
330
0
  0
XRECORD
  5
85
102
{ACAD_REACTORS
330
84
102
}
330
84
100
AcDbXrecord
330
0
  0
XRECORD
  5
88
102
{ACAD_REACTORS
330
87
102
}
330
87
100
AcDbXrecord
330
0
  0
MATERIAL
  5
45
102
{ACAD_REACTORS
330
43
102
}
102
{ACAD_XDICTIONARY
360
2A4
102
}
330
43
100
AcDbMaterial
  1
BYBLOCK
  0
MATERIAL
  5
44
102
{ACAD_REACTORS
330
43
102
}
102
{ACAD_XDICTIONARY
360
2A2
102
}
330
43
100
AcDbMaterial
  1
BYLAYER
  0
MATERIAL
  5
46
102
{ACAD_REACTORS
330
43
102
}
102
{ACAD_XDICTIONARY
360
2A6
102
}
330
43
100
AcDbMaterial
  1
GLOBAL
  0
ACAD_PROXY_OBJECT
  5
6C
102
{ACAD_REACTORS
330
6B
102
}
330
6B
100
AcDbProxyObject
 90
      499
 91
      505
 93
      610
310
40901902A4063FBFFFFFE0000000000000020400000000000020404214DD185B99185C990000000000000104090140501A00000000000004100000000000000041025764000000000000039000
340
14
340
0
340
11
340
0
 94
        0
1001
ACAD_MLEADERVER
1070
     2
  0
MLINESTYLE
  5
18
102
{ACAD_REACTORS
330
17
102
}
330
17
100
AcDbMlineStyle
  2
Standard
 70
     0
  3

 62
   256
 51
90.0
 52
90.0
 71
     2
 49
0.5
 62
   256
  6
BYLAYER
 49
-0.5
 62
   256
  6
BYLAYER
  0
ACAD_PROXY_OBJECT
  5
48
102
{ACAD_REACTORS
330
47
102
}
330
47
100
AcDbProxyObject
 90
      499
 91
      503
 93
       41
310
903313A31580
  0
ACAD_PROXY_OBJECT
  5
49
102
{ACAD_REACTORS
330
47
102
}
330
47
100
AcDbProxyObject
 90
      499
 91
      503
 93
      105
310
903313A324000000000000004000
  0
ACAD_PROXY_OBJECT
  5
4A
102
{ACAD_REACTORS
330
47
102
}
330
47
100
AcDbProxyObject
 90
      499
 91
      503
 93
      105
310
903313A344000000000000104000
  0
ACAD_PROXY_OBJECT
  5
4B
102
{ACAD_REACTORS
330
47
102
}
330
47
100
AcDbProxyObject
 90
      499
 91
      503
 93
      105
310
903313A354000000000000144000
  0
ACAD_PROXY_OBJECT
  5
4C
102
{ACAD_REACTORS
330
47
102
}
330
47
100
AcDbProxyObject
 90
      499
 91
      503
 93
      105
310
903313A384000000000000204000
  0
ACAD_PROXY_OBJECT
  5
4D
102
{ACAD_REACTORS
330
47
102
}
330
47
100
AcDbProxyObject
 90
      499
 91
      503
 93
      113
310
904313A31304000000000000244000
  0
ACAD_PROXY_OBJECT
  5
4E
102
{ACAD_REACTORS
330
47
102
}
330
47
100
AcDbProxyObject
 90
      499
 91
      503
 93
      113
310
904313A31364000000000000304000
  0
ACAD_PROXY_OBJECT
  5
4F
102
{ACAD_REACTORS
330
47
102
}
330
47
100
AcDbProxyObject
 90
      499
 91
      503
 93
      113
310
904313A32304000000000000344000
  0
ACAD_PROXY_OBJECT
  5
50
102
{ACAD_REACTORS
330
47
102
}
330
47
100
AcDbProxyObject
 90
      499
 91
      503
 93
      113
310
904313A333040000000000003E4000
  0
ACAD_PROXY_OBJECT
  5
51
102
{ACAD_REACTORS
330
47
102
}
330
47
100
AcDbProxyObject
 90
      499
 91
      503
 93
      113
310
904313A34304000000000000444000
  0
ACAD_PROXY_OBJECT
  5
52
102
{ACAD_REACTORS
330
47
102
}
330
47
100
AcDbProxyObject
 90
      499
 91
      503
 93
      113
310
904313A35304000000000000494000
  0
ACAD_PROXY_OBJECT
  5
53
102
{ACAD_REACTORS
330
47
102
}
330
47
100
AcDbProxyObject
 90
      499
 91
      503
 93
      121
310
905313A3130304000000000000594000
  0
ACAD_PROXY_OBJECT
  5
54
102
{ACAD_REACTORS
330
47
102
}
330
47
100
AcDbProxyObject
 90
      499
 91
      503
 93
      105
310
903323A310000000000000010100
  0
ACAD_PROXY_OBJECT
  5
55
102
{ACAD_REACTORS
330
47
102
}
330
47
100
AcDbProxyObject
 90
      499
 91
      503
 93
      105
310
903343A310000000000000410100
  0
ACAD_PROXY_OBJECT
  5
56
102
{ACAD_REACTORS
330
47
102
}
330
47
100
AcDbProxyObject
 90
      499
 91
      503
 93
      105
310
903383A310000000000000810100
  0
ACAD_PROXY_OBJECT
  5
57
102
{ACAD_REACTORS
330
47
102
}
330
47
100
AcDbProxyObject
 90
      499
 91
      503
 93
      113
310
90431303A310000000000000910100
  0
ACAD_PROXY_OBJECT
  5
58
102
{ACAD_REACTORS
330
47
102
}
330
47
100
AcDbProxyObject
 90
      499
 91
      503
 93
      121
310
9053130303A310000000000001650100
  0
ACAD_PROXY_OBJECT
  5
59
102
{ACAD_REACTORS
330
47
102
}
330
47
100
AcDbProxyObject
 90
      499
 91
      503
 93
      257
310
90E312F31323822203D2031272D3022000000000000200FC000000000000284000
  0
ACAD_PROXY_OBJECT
  5
5A
102
{ACAD_REACTORS
330
47
102
}
330
47
100
AcDbProxyObject
 90
      499
 91
      503
 93
      249
310
90D312F363422203D2031272D3022000000000000240FC000000000000284000
  0
ACAD_PROXY_OBJECT
  5
5B
102
{ACAD_REACTORS
330
47
102
}
330
47
100
AcDbProxyObject
 90
      499
 91
      503
 93
      249
310
90D312F333222203D2031272D3022000000000000280FC000000000000284000
  0
ACAD_PROXY_OBJECT
  5
5C
102
{ACAD_REACTORS
330
47
102
}
330
47
100
AcDbProxyObject
 90
      499
 91
      503
 93
      249
310
90D312F313622203D2031272D30220000000000002C0FC000000000000284000
  0
ACAD_PROXY_OBJECT
  5
5D
102
{ACAD_REACTORS
330
47
102
}
330
47
100
AcDbProxyObject
 90
      499
 91
      503
 93
      249
310
90D332F333222203D2031272D30220000000000002E0FC000000000000284000
  0
ACAD_PROXY_OBJECT
  5
5E
102
{ACAD_REACTORS
330
47
102
}
330
47
100
AcDbProxyObject
 90
      499
 91
      503
 93
      241
310
90C312F3822203D2031272D3022000000000000300FC000000000000284000
  0
ACAD_PROXY_OBJECT
  5
5F
102
{ACAD_REACTORS
330
47
102
}
330
47
100
AcDbProxyObject
 90
      499
 91
      503
 93
      249
310
90D332F313622203D2031272D3022000000000000320FC000000000000284000
  0
ACAD_PROXY_OBJECT
  5
60
102
{ACAD_REACTORS
330
47
102
}
330
47
100
AcDbProxyObject
 90
      499
 91
      503
 93
      241
310
90C312F3422203D2031272D3022000000000000340FC000000000000284000
  0
ACAD_PROXY_OBJECT
  5
61
102
{ACAD_REACTORS
330
47
102
}
330
47
100
AcDbProxyObject
 90
      499
 91
      503
 93
      241
310
90C332F3822203D2031272D3022000000000000360FC000000000000284000
  0
ACAD_PROXY_OBJECT
  5
62
102
{ACAD_REACTORS
330
47
102
}
330
47
100
AcDbProxyObject
 90
      499
 91
      503
 93
      241
310
90C312F3222203D2031272D3022000000000000380FC000000000000284000
  0
ACAD_PROXY_OBJECT
  5
63
102
{ACAD_REACTORS
330
47
102
}
330
47
100
AcDbProxyObject
 90
      499
 91
      503
 93
      241
310
90C332F3422203D2031272D30220000000000003A0FC000000000000284000
  0
ACAD_PROXY_OBJECT
  5
64
102
{ACAD_REACTORS
330
47
102
}
330
47
100
AcDbProxyObject
 90
      499
 91
      503
 93
      161
310
90A3122203D2031272D30224000000000000284000
  0
ACAD_PROXY_OBJECT
  5
65
102
{ACAD_REACTORS
330
47
102
}
330
47
100
AcDbProxyObject
 90
      499
 91
      503
 93
      257
310
90E312D312F3222203D2031272D30220000000000003E0FC000000000000284000
  0
ACAD_PROXY_OBJECT
  5
66
102
{ACAD_REACTORS
330
47
102
}
330
47
100
AcDbProxyObject
 90
      499
 91
      503
 93
      225
310
90A3322203D2031272D302200000000000002100000000000000284000
  0
ACAD_PROXY_OBJECT
  5
67
102
{ACAD_REACTORS
330
47
102
}
330
47
100
AcDbProxyObject
 90
      499
 91
      503
 93
      225
310
90A3622203D2031272D302200000000000006100000000000000284000
  0
ACAD_PROXY_OBJECT
  5
68
102
{ACAD_REACTORS
330
47
102
}
330
47
100
AcDbProxyObject
 90
      499
 91
      503
 93
      249
310
90D31272D3022203D2031272D30220000000000000A100000000000000284000
  0
ACAD_PROXY_OBJECT
  5
2F
102
{ACAD_REACTORS
330
2A
102
}
330
2A
100
AcDbProxyObject
 90
      499
 91
      501
 93
      436
310
42CC9915DA5C99599C985B595049028333333333333E33F0000000000000F90107901411070040501600405405064090741402480A0340
1001
ACAD
1000
AcDbSavedByObjectVersion
1070
     0
  0
ACAD_PROXY_OBJECT
  5
32
102
{ACAD_REACTORS
330
2A
102
}
330
2A
100
AcDbProxyObject
 90
      499
 91
      501
 93
      388
310
4150985CDA58D07406404333333333333E33F0000000000000F90107A41107004050150841D405064090741402480A0350
1001
ACAD
1000
AcDbSavedByObjectVersion
1070
     0
  0
ACAD_PROXY_OBJECT
  5
36
102
{ACAD_REACTORS
330
2A
102
}
330
2A
100
AcDbProxyObject
 90
      499
 91
      501
 93
      428
310
42109C9A59DA1D195B90C409028333333333333E33F0000000000000F9010790141107004050150841D405064090741402480A029950
1001
ACAD
1000
AcDbSavedByObjectVersion
1070
     0
  0
ACAD_PROXY_OBJECT
  5
3A
102
{ACAD_REACTORS
330
2A
102
}
330
2A
100
AcDbProxyObject
 90
      499
 91
      501
 93
      452
310
42D0DBDB1BDC90DA185B99D95104090240C333333333333E33F0000000000000F90108901411070040501508421405064090741402480A0350
1001
ACAD
1000
AcDbSavedByObjectVersion
1070
     0
  0
ACAD_PROXY_OBJECT
  5
34
102
{ACAD_REACTORS
330
2A
102
}
330
2A
100
AcDbProxyObject
 90
      499
 91
      501
 93
      500
310
4290DBDB98D95C1D1D585B10940D028333333333333E33F0000000000000F90107902409070040501000000000018199010841D405064090740C02480A0340
1001
ACAD
1000
AcDbSavedByObjectVersion
1070
     0
  0
ACAD_PROXY_OBJECT
  5
35
102
{ACAD_REACTORS
330
2A
102
}
330
2A
100
AcDbProxyObject
 90
      499
 91
      501
 93
      412
310
40D11A5B50B409028333333333333E33F0000000000000F9010790141107004050150841D405064090741402480A02677FFFFFD0
1001
ACAD
1000
AcDbSavedByObjectVersion
1070
     0
  0
ACAD_PROXY_OBJECT
  5
3D
102
{ACAD_REACTORS
330
2A
102
}
330
2A
100
AcDbProxyObject
 90
      499
 91
      501
 93
      452
310
43115919D950DBDB1BDC93D999916409028333333333333E33F0000000000000F9010790141107004050150841D405064090741402480A0350
1001
ACAD
1000
AcDbSavedByObjectVersion
1070
     0
  0
ACAD_PROXY_OBJECT
  5
39
102
{ACAD_REACTORS
330
2A
102
}
330
2A
100
AcDbProxyObject
 90
      499
 91
      501
 93
      444
310
42D19858D95C185D1D195C9B90F409028333333333333E33F0000000000000F9010790141107004050150841D405064090741402480A0350
1001
ACAD
1000
AcDbSavedByObjectVersion
1070
     0
  0
ACAD_PROXY_OBJECT
  5
2B
102
{ACAD_REACTORS
330
2A
102
}
330
2A
100
AcDbProxyObject
 90
      499
 91
      501
 93
      380
310
41119B185D240901404333333333333E33F0000000000000F9010740A907004050150841D405064090741402480A1B50
1001
ACAD
1000
AcDbSavedByObjectVersion
1070
     0
  0
ACAD_PROXY_OBJECT
  5
2C
102
{ACAD_REACTORS
330
2A
102
}
330
2A
100
AcDbProxyObject
 90
      499
 91
      501
 93
      468
310
43519B185D15DA5D1A115919D95CD0140901404333333333333E33F0000000000000F90107409019070040501600405405064090741402480A1B50
1001
ACAD
1000
AcDbSavedByObjectVersion
1070
     0
  0
ACAD_PROXY_OBJECT
  5
2D
102
{ACAD_REACTORS
330
2A
102
}
330
2A
100
AcDbProxyObject
 90
      499
 91
      501
 93
      404
310
41D1DBDD5C985D5910240902404333333333333E33F0000000000000F9010740A9070040501641D405064090741402480A1B50
1001
ACAD
1000
AcDbSavedByObjectVersion
1070
     0
  0
ACAD_PROXY_OBJECT
  5
2E
102
{ACAD_REACTORS
330
2A
102
}
330
2A
100
AcDbProxyObject
 90
      499
 91
      501
 93
      492
310
4411DBDD5C985D5915DA5D1A115919D95CD0340902404333333333333E33F0000000000000F90107409019070040501600405405064090741402480A1B50
1001
ACAD
1000
AcDbSavedByObjectVersion
1070
     0
  0
ACAD_PROXY_OBJECT
  5
31
102
{ACAD_REACTORS
330
2A
102
}
330
2A
100
AcDbProxyObject
 90
      499
 91
      501
 93
      476
310
41921A5919195B90640502408333333333333E33F0000000000000F901079024090700405020000000000001110200405405064090740C02480A0340
1001
ACAD
1000
AcDbSavedByObjectVersion
1070
     0
  0
ACAD_PROXY_OBJECT
  5
3B
102
{ACAD_REACTORS
330
2A
102
}
330
2A
100
AcDbProxyObject
 90
      499
 91
      501
 93
      428
310
42529A5D1D195C93D999914409028333333333333E33F0000000000000F9010790141107004050150A41D405064090741402480A0350
1001
ACAD
1000
AcDbSavedByObjectVersion
1070
     0
  0
ACAD_PROXY_OBJECT
  5
38
102
{ACAD_REACTORS
330
2A
102
}
330
2A
100
AcDbProxyObject
 90
      499
 91
      501
 93
      444
310
42D31A5B995C185D1D195C9B90E409028333333333333E33F0000000000000F9010790141107004050750841D405064090741402483A0350
1001
ACAD
1000
AcDbSavedByObjectVersion
1070
     0
  0
ACAD_PROXY_OBJECT
  5
3C
102
{ACAD_REACTORS
330
2A
102
}
330
2A
100
AcDbProxyObject
 90
      499
 91
      501
 93
      444
310
42D3DD995C9A185B99D3D999915409028333333333333E33F0000000000000F9010790141107004050150941D405064090741402480A0350
1001
ACAD
1000
AcDbSavedByObjectVersion
1070
     0
  0
ACAD_PROXY_OBJECT
  5
33
102
{ACAD_REACTORS
330
2A
102
}
330
2A
100
AcDbProxyObject
 90
      499
 91
      501
 93
      428
310
425499585B1A5CDD1A58D08409038333333333333E33F0000000000000F9010740A907004050150800405405064090740C02480A1B40
1001
ACAD
1000
AcDbSavedByObjectVersion
1070
     0
  0
ACAD_PROXY_OBJECT
  5
42
102
{ACAD_REACTORS
330
2A
102
}
330
2A
100
AcDbProxyObject
 90
      499
 91
      501
 93
      420
310
4194DA1859195911B40902404333333333333E33F0000000000000F9010740A41107004050150800405405064090840C02480A0B40
1001
ACAD
1000
AcDbSavedByObjectVersion
1070
     0
  0
ACAD_PROXY_OBJECT
  5
41
102
{ACAD_REACTORS
330
2A
102
}
330
2A
100
AcDbProxyObject
 90
      499
 91
      501
 93
      516
310
4454DA18591959081DDA5D1A08195919D95CD1A40902404333333333333E33F0000000000000F901074090142907004050250800405405064090740C02480A0B40
1001
ACAD
1000
AcDbSavedByObjectVersion
1070
     0
  0
ACAD_PROXY_OBJECT
  5
3E
102
{ACAD_REACTORS
330
2A
102
}
330
2A
100
AcDbProxyObject
 90
      499
 91
      501
 93
      532
310
4394DA1859195CC81BD98811DC985E5174090240C333333333333E33F0000000000000F901079024090741D01000000000000111010841D405064090740C02480A0340
1001
ACAD
1000
AcDbSavedByObjectVersion
1070
     0
  0
ACAD_PROXY_OBJECT
  5
3F
102
{ACAD_REACTORS
330
2A
102
}
330
2A
100
AcDbProxyObject
 90
      499
 91
      501
 93
      476
310
41D4DAD95D18DA1E51840502408333333333333E33F0000000000000F901079024090741D01000000000000111010B41D405064090741802480A0340
1001
ACAD
1000
AcDbSavedByObjectVersion
1070
     0
  0
ACAD_PROXY_OBJECT
  5
37
102
{ACAD_REACTORS
330
2A
102
}
330
2A
100
AcDbProxyObject
 90
      499
 91
      501
 93
      412
310
41D51A1A58DAD95B90D409028333333333333E33F0000000000000F9010790141107004050150C41D405064090741402480A0350
1001
ACAD
1000
AcDbSavedByObjectVersion
1070
     0
  0
ACAD_PROXY_OBJECT
  5
30
102
{ACAD_REACTORS
330
2A
102
}
330
2A
100
AcDbProxyObject
 90
      499
 91
      501
 93
      420
310
4255DA5C99599C985B595059028333333333333E33F0000000000000F90107901411070040501600405405064090740C02480A0340
1001
ACAD
1000
AcDbSavedByObjectVersion
1070
     0
  0
ACAD_PROXY_OBJECT
  5
40
102
{ACAD_REACTORS
330
2A
102
}
330
2A
100
AcDbProxyObject
 90
      499
 91
      501
 93
      404
310
41560B54985E51940902404000000000000E03F0000000000000F9010740501907004050150841D405064090740C02480A1B40
1001
ACAD
1000
AcDbSavedByObjectVersion
1070
     0
  0
XRECORD
  5
27D
102
{ACAD_REACTORS
330
273
102
}
330
273
100
AcDbXrecord
340
0
  0
XRECORD
  5
27C
102
{ACAD_REACTORS
330
273
102
}
330
273
100
AcDbXrecord
 90
        0
  0
XRECORD
  5
293
102
{ACAD_REACTORS
330
273
102
}
330
273
100
AcDbXrecord
1000
DSTYLE
1002
{
1070
   179
 70
     1
1070
   143
 40
0.03937
1070
   285
 70
     8
1070
   176
 70
     7
1070
   177
 70
     7
1070
   178
 70
     7
1070
   371
 70
    13
1070
   372
 70
    13
1070
   340
340
73
1070
   140
 40
3.5
1070
   288
 70
     1
1002
}
  0
XRECORD
  5
27E
102
{ACAD_REACTORS
330
273
102
}
330
273
100
AcDbXrecord
  1
{75e1b477-7438-3770-3135-37656271b175}
  0
XRECORD
  5
276
102
{ACAD_REACTORS
330
273
102
}
330
273
100
AcDbXrecord
  1

  0
XRECORD
  5
27B
102
{ACAD_REACTORS
330
273
102
}
330
273
100
AcDbXrecord
 90
        4
  0
XRECORD
  5
278
102
{ACAD_REACTORS
330
273
102
}
330
273
100
AcDbXrecord
340
1A
  0
XRECORD
  5
27A
102
{ACAD_REACTORS
330
273
102
}
330
273
100
AcDbXrecord
 90
    10269
  0
XRECORD
  5
279
102
{ACAD_REACTORS
330
273
102
}
330
273
100
AcDbXrecord
340
19
  0
XRECORD
  5
280
102
{ACAD_REACTORS
330
273
102
}
330
273
100
AcDbXrecord
 40
0.0
  0
XRECORD
  5
283
102
{ACAD_REACTORS
330
273
102
}
330
273
100
AcDbXrecord
340
0
  0
XRECORD
  5
289
102
{ACAD_REACTORS
330
273
102
}
330
273
100
AcDbXrecord
 10
0.0
 20
0.0
 30
0.0
  0
XRECORD
  5
285
102
{ACAD_REACTORS
330
273
102
}
330
273
100
AcDbXrecord
 10
0.0
 20
0.0
 30
0.0
  0
XRECORD
  5
288
102
{ACAD_REACTORS
330
273
102
}
330
273
100
AcDbXrecord
 10
0.0
 20
0.0
 30
0.0
  0
XRECORD
  5
286
102
{ACAD_REACTORS
330
273
102
}
330
273
100
AcDbXrecord
 10
0.0
 20
0.0
 30
0.0
  0
XRECORD
  5
287
102
{ACAD_REACTORS
330
273
102
}
330
273
100
AcDbXrecord
 10
0.0
 20
0.0
 30
0.0
  0
XRECORD
  5
284
102
{ACAD_REACTORS
330
273
102
}
330
273
100
AcDbXrecord
 10
0.0
 20
0.0
 30
0.0
  0
XRECORD
  5
281
102
{ACAD_REACTORS
330
273
102
}
330
273
100
AcDbXrecord
340
0
  0
XRECORD
  5
282
102
{ACAD_REACTORS
330
273
102
}
330
273
100
AcDbXrecord
 70
     0
  0
XRECORD
  5
277
102
{ACAD_REACTORS
330
273
102
}
330
273
100
AcDbXrecord
  1

  0
XRECORD
  5
274
102
{ACAD_REACTORS
330
273
102
}
330
273
100
AcDbXrecord
 90
        1
  0
XRECORD
  5
275
102
{ACAD_REACTORS
330
273
102
}
330
273
100
AcDbXrecord
 90
       70
  0
XRECORD
  5
28C
102
{ACAD_REACTORS
330
273
102
}
330
273
100
AcDbXrecord
340
0
  0
XRECORD
  5
292
102
{ACAD_REACTORS
330
273
102
}
330
273
100
AcDbXrecord
 10
0.0
 20
0.0
 30
0.0
  0
XRECORD
  5
28E
102
{ACAD_REACTORS
330
273
102
}
330
273
100
AcDbXrecord
 10
0.0
 20
0.0
 30
0.0
  0
XRECORD
  5
291
102
{ACAD_REACTORS
330
273
102
}
330
273
100
AcDbXrecord
 10
0.0
 20
0.0
 30
0.0
  0
XRECORD
  5
28F
102
{ACAD_REACTORS
330
273
102
}
330
273
100
AcDbXrecord
 10
0.0
 20
0.0
 30
0.0
  0
XRECORD
  5
290
102
{ACAD_REACTORS
330
273
102
}
330
273
100
AcDbXrecord
 10
0.0
 20
0.0
 30
0.0
  0
XRECORD
  5
28D
102
{ACAD_REACTORS
330
273
102
}
330
273
100
AcDbXrecord
 10
0.0
 20
0.0
 30
0.0
  0
XRECORD
  5
28A
102
{ACAD_REACTORS
330
273
102
}
330
273
100
AcDbXrecord
340
0
  0
XRECORD
  5
28B
102
{ACAD_REACTORS
330
273
102
}
330
273
100
AcDbXrecord
 70
     0
  0
XRECORD
  5
27F
102
{ACAD_REACTORS
330
273
102
}
330
273
100
AcDbXrecord
  1
{FAEB1C32-E019-11D5-929B-00C0DF256EC4}
  0
DICTIONARYVAR
  5
2A0
102
{ACAD_REACTORS
330
6E
102
}
330
6E
100
DictionaryVariables
280
     0
  1
1:1
  0
DICTIONARYVAR
  5
29A
102
{ACAD_REACTORS
330
6E
102
}
330
6E
100
DictionaryVariables
280
     0
  1
3.500000
  0
DICTIONARYVAR
  5
29B
102
{ACAD_REACTORS
330
6E
102
}
330
6E
100
DictionaryVariables
280
     0
  1
MM.LIN
  0
DICTIONARYVAR
  5
295
102
{ACAD_REACTORS
330
6E
102
}
330
6E
100
DictionaryVariables
280
     0
  1
Standard
  0
DICTIONARYVAR
  5
294
102
{ACAD_REACTORS
330
6E
102
}
330
6E
100
DictionaryVariables
280
     0
  1
Onshape-Standard
  0
DICTIONARYVAR
  5
29C
102
{ACAD_REACTORS
330
6E
102
}
330
6E
100
DictionaryVariables
280
     0
  1
2
  0
DICTIONARYVAR
  5
29D
102
{ACAD_REACTORS
330
6E
102
}
330
6E
100
DictionaryVariables
280
     0
  1
1
  0
DICTIONARYVAR
  5
2A1
102
{ACAD_REACTORS
330
6E
102
}
330
6E
100
DictionaryVariables
280
     0
  1
1
  0
DICTIONARYVAR
  5
6F
102
{ACAD_REACTORS
330
6E
102
}
330
6E
100
DictionaryVariables
280
     0
  1
0
  0
DICTIONARYVAR
  5
297
102
{ACAD_REACTORS
330
6E
102
}
330
6E
100
DictionaryVariables
280
     0
  1
80.000000
  0
DICTIONARYVAR
  5
296
102
{ACAD_REACTORS
330
6E
102
}
330
6E
100
DictionaryVariables
280
     0
  1
5.000000
  0
XRECORD
  5
22D
102
{ACAD_REACTORS
330
22C
102
}
330
22C
100
AcDbXrecord
 70
     4
  0
XRECORD
  5
230
102
{ACAD_REACTORS
330
22C
102
}
330
22C
100
AcDbXrecord
 90
        0
  0
XRECORD
  5
22F
102
{ACAD_REACTORS
330
22C
102
}
330
22C
100
AcDbXrecord
 90
        0
  0
XRECORD
  5
22E
102
{ACAD_REACTORS
330
22C
102
}
330
22C
100
AcDbXrecord
 90
        1
  0
DICTIONARY
  5
2A4
330
45
100
AcDbDictionary
280
     1
  3
ACAD_XREC_ROUNDTRIP
360
2A5
  0
DICTIONARY
  5
2A2
330
44
100
AcDbDictionary
280
     1
  3
ACAD_XREC_ROUNDTRIP
360
2A3
  0
DICTIONARY
  5
2A6
330
46
100
AcDbDictionary
280
     1
  3
ACAD_XREC_ROUNDTRIP
360
2A7
  0
XRECORD
  5
2A5
102
{ACAD_REACTORS
330
2A4
102
}
330
2A4
100
AcDbXrecord
102
MATERIAL
148
0.0
149
0.0
149
0.0
 93
        0
 94
      127
282
     0
 72
     1
 77
     1
171
     1
175
     1
179
     1
273
     0
  0
XRECORD
  5
2A3
102
{ACAD_REACTORS
330
2A2
102
}
330
2A2
100
AcDbXrecord
102
MATERIAL
148
0.0
149
0.0
149
0.0
 93
        0
 94
      127
282
     0
 72
     1
 77
     1
171
     1
175
     1
179
     1
273
     0
  0
XRECORD
  5
2A7
102
{ACAD_REACTORS
330
2A6
102
}
330
2A6
100
AcDbXrecord
102
MATERIAL
148
0.0
149
0.0
149
0.0
 93
        0
 94
      127
282
     0
 72
     1
 77
     1
171
     1
175
     1
179
     1
273
     0
  0
ENDSEC
  0
EOF
